<?xml version="1.0" standalone="no"?>
<!DOCTYPE svg PUBLIC "-//W3C//DTD SVG 1.1//EN" "http://www.w3.org/Graphics/SVG/1.1/DTD/svg11.dtd" >
<svg xmlns="http://www.w3.org/2000/svg">
<metadata>
This is a custom SVG webfont generated by Fontspring.
</metadata>
<defs>
<font id="PlanerRegular" horiz-adv-x="1239" >
<font-face units-per-em="2048" ascent="1536" descent="-512" />
<missing-glyph horiz-adv-x="696" />
<glyph unicode=" "  horiz-adv-x="696" />
<glyph unicode="&#x09;" horiz-adv-x="696" />
<glyph unicode="&#xa0;" horiz-adv-x="696" />
<glyph unicode="!" horiz-adv-x="311" d="M94 59v88q0 27 16.5 43.5t45.5 16.5q27 0 45 -16.5t18 -43.5v-88q0 -27 -18.5 -43t-44.5 -16q-29 0 -45.5 16t-16.5 43zM94 469v907q0 25 16.5 41.5t45.5 16.5q27 0 45 -16.5t18 -41.5v-907q0 -27 -18.5 -43t-44.5 -16q-29 0 -45.5 16t-16.5 43z" />
<glyph unicode="&#x22;" horiz-adv-x="630" d="M94 1063v321q0 27 17.5 43.5t44.5 16.5q29 0 46 -16.5t17 -43.5v-321q0 -25 -17.5 -41t-45 -16t-45 15t-17.5 42zM412 1063v321q0 27 17 43.5t44 16.5q29 0 46.5 -16.5t17.5 -43.5v-321q0 -25 -17.5 -41t-44.5 -16q-29 0 -46 15t-17 42z" />
<glyph unicode="#" horiz-adv-x="1230" d="M82 428q0 27 18.5 43t49.5 16h133l84 385h-207q-27 0 -45.5 17.5t-18.5 43t19.5 43t48.5 17.5h227l82 373q12 53 68 53q27 0 43 -14t16 -41q0 -6 -2 -14l-78 -357h314l77 373q6 23 24.5 38t44.5 15t43 -15t17 -40q0 -6 -2 -14l-77 -357h122q33 0 50.5 -17.5t17.5 -43 t-17.5 -43t-46.5 -17.5h-151l-84 -385h215q31 0 49.5 -16t18.5 -43t-17.5 -44t-46.5 -17h-244l-67 -314q-4 -23 -22.5 -38t-43.5 -15q-27 0 -43 15.5t-16 37.5q0 8 2 15l63 299h-313l-65 -314q-6 -25 -26 -39t-43.5 -14t-40.5 16.5t-17 38.5v13l65 299h-115q-27 0 -45 17 t-18 44zM412 487h311l84 385h-311z" />
<glyph unicode="$" horiz-adv-x="1079" d="M92 58.5q0 23.5 18.5 41t43.5 17.5h342v573q-80 18 -129.5 31.5t-107.5 42.5t-90 66.5t-54.5 98t-22.5 142.5q0 180 102.5 265t301.5 96v71q0 18 14 32.5t35.5 14.5t36 -14t14.5 -37v-65h295q31 0 48 -17.5t17 -41t-18 -41t-43 -17.5h-299v-524q102 -18 168.5 -43 t121 -66t80 -103.5t25.5 -152.5q0 -211 -99 -313.5t-296 -112.5v-68q0 -23 -14.5 -37t-34.5 -14q-23 0 -37 14.5t-14 32.5v70h-342q-25 0 -43.5 17.5t-18.5 41zM217 1071q0 -68 18.5 -114t59.5 -73.5t84 -42t117 -28.5v498q-279 -13 -279 -240zM596 121q270 18 270 307 q0 115 -60.5 162t-209.5 80v-549z" />
<glyph unicode="%" horiz-adv-x="1273" d="M100 45q0 18 13 37l968 1335q16 23 45 23q18 0 33 -10q23 -16 23 -41q0 -18 -13 -35l-970 -1338q-16 -25 -43 -24q-16 0 -31 10q-25 16 -25 43zM117 1149q0 145 53 209.5t168 64.5q113 0 166 -65.5t53 -210.5q0 -147 -54 -216t-165 -69q-113 0 -167 68.5t-54 218.5z M203 1149q0 -102 30.5 -155.5t104.5 -53.5t103.5 52t29.5 155q0 98 -29.5 147t-103.5 49q-76 0 -105.5 -48t-29.5 -146zM725 285q0 145 53 209.5t168 64.5q113 0 166 -64.5t53 -211.5t-54 -216t-165 -69q-113 0 -167 68.5t-54 218.5zM811 285q0 -100 30.5 -153.5 t104.5 -53.5t103.5 52t29.5 153q0 100 -29.5 148t-103.5 48q-76 0 -105.5 -47t-29.5 -147z" />
<glyph unicode="&#x26;" horiz-adv-x="1236" d="M63 332q0 47 15.5 88t51.5 80t58.5 59.5t75.5 59t64 47.5l135 106l-96 119q-84 104 -84 244q0 131 89 215t214 84h65q131 0 219 -79t88 -220q0 -20 -4 -41t-10 -37.5t-19.5 -37t-21.5 -32.5t-28.5 -31.5t-30.5 -30t-35 -29.5t-33 -26.5t-36.5 -28t-32.5 -24.5l-80 -63 l293 -369l14 154q4 29 16.5 41t40.5 10q51 -4 51 -53q0 -6 -2 -17l-34 -246l141 -174q16 -23 16 -43q0 -25 -24 -43q-20 -16 -39 -16q-23 0 -45 29l-103 129q-25 -57 -71 -97q-63 -59 -187 -59h-327q-127 0 -215.5 93.5t-88.5 238.5zM184 332q0 -100 51.5 -158.5 t131.5 -58.5h327q76 0 109 30q55 43 74 105l-342 432l-134 -104q-16 -12 -62 -47t-63.5 -49.5t-44 -42t-37 -53t-10.5 -54.5zM401 1135q0 -100 60 -172l94 -119l92 74q8 6 21 16q61 45 89.5 69.5t55.5 61.5t27 70q0 94 -50.5 139t-138.5 45h-65q-80 0 -132.5 -50t-52.5 -134 z" />
<glyph unicode="'" horiz-adv-x="311" d="M94 1063v321q0 27 16.5 44.5t45.5 17.5q27 0 45 -17.5t18 -44.5v-321q0 -25 -18.5 -41t-44.5 -16q-29 0 -45.5 16t-16.5 41z" />
<glyph unicode="(" horiz-adv-x="489" d="M94 612q0 125 47 324t85 313.5t53 151.5q12 37 57 37q12 0 24 -4q33 -14 33 -45q0 -12 -4 -29q-166 -483 -166 -748q0 -264 168 -772q4 -12 4 -24q0 -31 -28 -45q-14 -8 -31 -9q-39 0 -53 37q-10 20 -50 143.5t-89.5 331t-49.5 338.5z" />
<glyph unicode=")" horiz-adv-x="489" d="M94 -184q0 12 4 24q37 92 99 330q70 276 69 442q0 264 -164 748q-6 16 -6 29q0 31 33 45q12 4 27 4q43 0 55 -37q14 -37 52 -151.5t85 -313.5t47 -324q0 -131 -48 -338.5t-89 -330.5t-49 -144q-14 -37 -55 -37q-16 0 -29 9q-31 14 -31 45z" />
<glyph unicode="*" horiz-adv-x="841" d="M119 1208q0 6 2 15q10 39 53 39q8 0 16 -5l179 -59v186q0 23 16 38.5t39 15.5q25 0 40 -15.5t15 -38.5v-188l174 55q10 4 21 4q41 0 51 -38v-13q0 -41 -39 -53l-178 -55l115 -160q6 -14 6 -27q0 -25 -19 -39q-16 -12 -35 -12q-29 0 -47 23l-110 151l-107 -147 q-16 -23 -47 -23q-18 0 -31 10q-23 14 -22 39q0 18 12 35l113 154l-178 59q-39 12 -39 49z" />
<glyph unicode="+" horiz-adv-x="1200" d="M96 516q0 23 18.5 40t45.5 17h377v383q0 25 19 41.5t46 16.5t43.5 -15.5t16.5 -40.5v-385h380q29 0 46.5 -16t17.5 -42t-17.5 -42t-46.5 -16h-380v-387q0 -25 -17.5 -40.5t-46.5 -15.5q-25 0 -43 16.5t-18 43.5v383h-379q-27 0 -44.5 17t-17.5 42z" />
<glyph unicode="," horiz-adv-x="393" d="M102 -68q0 25 29 39q41 23 41 72v123q0 27 17.5 44t46.5 17q27 0 46 -18.5t19 -42.5v-139q0 -57 -41 -99.5t-90 -54.5q-27 -2 -45.5 12.5t-20.5 38.5q-2 4 -2 8z" />
<glyph unicode="-" horiz-adv-x="870" d="M96 537q0 23 17.5 40t44.5 17h557q27 0 44 -17.5t17 -41.5q0 -27 -16.5 -43.5t-44.5 -16.5h-555q-64 3 -64 62z" />
<glyph unicode="." horiz-adv-x="319" d="M94 49v78q0 27 18.5 45t47.5 18t48 -18t19 -45v-74q0 -31 -19.5 -50t-47.5 -19q-29 0 -47.5 18t-18.5 47z" />
<glyph unicode="/" horiz-adv-x="890" d="M94 49q0 10 6 23l592 1329q14 35 51 35q14 0 27 -6q29 -12 29 -46q0 -14 -6 -28l-590 -1325q-16 -33 -51 -33q-16 0 -29 6q-29 16 -29 45z" />
<glyph unicode="0" horiz-adv-x="1165" d="M96 473v371q0 258 129 388t359 130q231 0 359 -132t128 -386v-371q0 -240 -130 -365.5t-357 -125.5q-225 0 -356.5 126.5t-131.5 364.5zM223 473q0 -180 97.5 -277.5t264.5 -97.5t263 97.5t96 277.5v371q0 197 -92 299t-268 102t-268.5 -100.5t-92.5 -300.5v-371z" />
<glyph unicode="1" horiz-adv-x="700" d="M94 1069q0 35 31 51l344 230q23 14 49 14q41 0 64.5 -24.5t23.5 -63.5v-1213q0 -29 -17.5 -47t-45 -18t-46 17.5t-18.5 43.5v1153l-282 -192q-18 -12 -37 -12q-31 0 -51 22q-15 16 -15 39z" />
<glyph unicode="2" horiz-adv-x="1083" d="M96 74q0 33 27 57l493 461q92 86 142.5 167t50.5 185v60q0 113 -85 177t-208 64h-344q-25 0 -43 17.5t-18 40.5q0 25 18 42t43 17h346q180 0 296 -96.5t116 -261.5v-58q0 -135 -55.5 -231.5t-165.5 -200.5l-424 -397h639q31 0 48 -17.5t17 -40.5q0 -25 -18.5 -42 t-42.5 -17h-756q-31 0 -53.5 22.5t-22.5 51.5z" />
<glyph unicode="3" horiz-adv-x="1024" d="M96 59q0 23 18.5 40.5t43.5 17.5h422q96 0 161.5 69.5t65.5 182.5q0 117 -65.5 195.5t-161.5 78.5h-256q-29 0 -48.5 17.5t-19.5 40t19.5 40t43.5 17.5h273q90 0 152.5 66.5t62.5 168.5q0 106 -65.5 179t-161.5 73h-418q-29 0 -47.5 17.5t-18.5 41t18.5 41t43.5 17.5h422 q150 0 250 -106.5t100 -262.5q0 -102 -47 -179t-129 -116q82 -45 129 -133t47 -196q0 -162 -100.5 -265.5t-249.5 -103.5h-422q-25 0 -43.5 17t-18.5 42z" />
<glyph unicode="4" horiz-adv-x="1165" d="M96 420q0 23 13 55l342 850q12 35 55 35q18 0 35 -8q31 -16 30 -49q0 -12 -4 -23l-334 -838q-8 -23 -8 -30q0 -4 2 -9q4 -12 39 -12h463v293q0 29 17.5 46.5t45 17.5t46 -17.5t18.5 -42.5v-297h152q29 0 46 -17.5t17 -43t-17.5 -43t-45.5 -17.5h-152v-207 q0 -29 -17.5 -47t-45.5 -18q-29 0 -46.5 17.5t-17.5 43.5v211h-481q-63 0 -107.5 43.5t-44.5 106.5z" />
<glyph unicode="5" horiz-adv-x="1038" d="M96 58.5q0 25.5 17.5 43t44.5 17.5h338q141 0 232 59.5t91 186.5v139q0 111 -82 168t-211 57h-333q-43 0 -70 24.5t-27 65.5v430q0 41 27 67.5t70 26.5h647q27 0 45 -17t18 -43t-18.5 -41t-44.5 -15h-619v-385h307q184 0 300 -85t116 -253v-139q0 -186 -123 -275.5 t-323 -89.5h-340q-27 0 -44.5 16.5t-17.5 42z" />
<glyph unicode="6" horiz-adv-x="1095" d="M96 471v397q0 246 130 369t370 123h295q29 0 47 -17.5t18 -39.5q0 -23 -18 -41.5t-43 -18.5h-299q-170 0 -265 -86t-104 -258v-51h338q436 -2 436 -363v-84q0 -182 -115.5 -292.5t-332.5 -110.5q-229 0 -343 113.5t-114 359.5zM225 475q0 -199 79 -279.5t249 -80.5 q162 0 239.5 75.5t77.5 210.5v84q0 246 -309 246h-336v-256z" />
<glyph unicode="7" horiz-adv-x="1036" d="M96 1302.5q0 22.5 18.5 40t43.5 17.5h645q57 0 98 -40t41 -95q0 -29 -10 -51l-502 -1147q-12 -27 -53 -27q-18 0 -33 6q-31 18 -31 51q0 10 2 17l488 1108q12 29 12 39v6q-4 16 -43 16h-610q-29 0 -47.5 18.5t-18.5 41z" />
<glyph unicode="8" horiz-adv-x="1157" d="M96 369q0 111 51.5 199.5t139.5 127.5q-86 33 -138.5 113t-52.5 184q0 156 100.5 261.5t249.5 105.5h267q150 0 250 -106.5t100 -262.5q0 -102 -53.5 -183t-139.5 -110q88 -35 140.5 -127t52.5 -204q0 -162 -100.5 -265.5t-249.5 -103.5h-264q-152 0 -252.5 103.5 t-100.5 267.5zM219 369q0 -113 65.5 -183.5t161.5 -70.5h267q96 0 161.5 70.5t65.5 181.5q0 117 -65.5 195.5t-161.5 78.5h-267q-96 0 -161.5 -77.5t-65.5 -194.5zM219 993q0 -104 63.5 -169.5t159.5 -65.5h281q92 0 154.5 65.5t62.5 167.5q0 106 -65.5 179t-161.5 73h-267 q-96 0 -161.5 -72t-65.5 -178z" />
<glyph unicode="9" horiz-adv-x="1095" d="M96 872v86q0 182 116 292t333 110q229 0 342.5 -112.5t113.5 -358.5v-397q0 -248 -130 -371t-369 -123h-297q-29 0 -46.5 17.5t-17.5 41.5q0 23 17.5 40.5t44.5 17.5h299q168 0 263 87t103 259v51h-336q-436 0 -436 360zM225 872q0 -244 312 -243h333v256 q0 197 -77.5 277.5t-247.5 80.5q-162 0 -241 -75.5t-79 -209.5v-86z" />
<glyph unicode=":" horiz-adv-x="319" d="M94 57v78q0 27 18.5 45.5t47.5 18.5t48 -18.5t19 -45.5v-74q0 -31 -19.5 -49t-47.5 -18q-29 0 -47.5 17t-18.5 46zM94 735v78q0 27 18.5 45.5t47.5 18.5t48 -18.5t19 -45.5v-74q0 -31 -19.5 -50t-47.5 -19q-29 0 -47.5 18t-18.5 47z" />
<glyph unicode=";" horiz-adv-x="397" d="M102 -74q0 27 29 39q41 23 41 74v121q0 25 18.5 44t45.5 19t46 -19.5t19 -43.5v-137q0 -59 -40 -100.5t-91 -55.5q-27 -2 -45.5 13.5t-20.5 37.5q-2 4 -2 8zM170 735l2 78q0 25 18.5 44.5t47.5 19.5t48 -19.5t19 -44.5v-74q0 -31 -19.5 -50t-47.5 -19q-29 0 -48.5 18 t-19.5 47z" />
<glyph unicode="&#x3c;" horiz-adv-x="933" d="M98 635q0 47 43 76l602 391q12 8 31 8q31 0 47 -23q12 -16 13 -34q0 -31 -25 -45l-535 -349q-14 -8 -14 -22t12 -25l531 -362q29 -18 28 -51q0 -18 -12 -33q-18 -23 -45 -23q-18 0 -39 13l-598 403q-39 27 -39 76z" />
<glyph unicode="=" horiz-adv-x="1200" d="M96 385q0 23 18.5 40t45.5 17h882q29 0 46.5 -16t17.5 -43t-17.5 -42t-46.5 -15h-884q-27 2 -44.5 18t-17.5 41zM96 741q0 23 18.5 40.5t45.5 17.5h882q29 0 46.5 -16.5t17.5 -43t-17.5 -42t-46.5 -15.5h-884q-27 2 -44.5 18t-17.5 41z" />
<glyph unicode="&#x3e;" horiz-adv-x="933" d="M104 1053q0 18 13 34q16 23 47 23q18 0 31 -8l600 -391q45 -29 45 -76q0 -49 -39 -76l-598 -403q-20 -12 -41 -13q-27 0 -43 23q-12 14 -13 33q0 33 29 51l529 362q14 10 13 24.5t-13 22.5l-537 349q-23 14 -23 45z" />
<glyph unicode="?" horiz-adv-x="931" d="M96 1376q0 23 16.5 40.5t43.5 17.5h278q190 0 297 -90.5t107 -262.5q0 -88 -39 -160.5t-121 -144.5l-133 -121q-78 -72 -78 -143v-45q0 -29 -17.5 -45t-46.5 -16q-27 0 -44 16t-17 41v49q0 76 28.5 123t96.5 108l127 117q113 102 113 221q0 236 -273 236h-274 q-31 0 -47.5 16t-16.5 43zM338 55v84q0 25 19.5 43.5t48.5 18.5q27 0 46 -18.5t19 -43.5v-80q0 -29 -19.5 -47t-45.5 -18q-29 0 -48.5 18t-19.5 43z" />
<glyph unicode="@" horiz-adv-x="1208" d="M96 467v379q0 264 131 392t375 128q512 0 512 -526q0 -197 -103.5 -325t-238.5 -128h-227q-82 0 -139.5 56.5t-57.5 136.5q0 78 57.5 134t139.5 56h192v72q0 45 -25.5 75.5t-66.5 30.5h-209q-25 0 -39 12.5t-14 32.5t14.5 34.5t38.5 14.5h219q80 0 132.5 -56t52.5 -140 v-348q166 98 166 348q0 424 -402 424q-401 0 -401 -424v-379q0 -190 103.5 -291.5t277.5 -101.5q82 0 166 24h12q20 0 33.5 -14t15.5 -37q2 -37 -37 -47q-74 -25 -190 -25q-225 0 -356.5 127t-131.5 365zM451 580q0 -39 27.5 -69t66.5 -30h192v193h-192q-39 0 -66.5 -27.5 t-27.5 -66.5z" />
<glyph unicode="A" d="M76 59q0 8 2 19l373 1233q16 55 63 89t106.5 34t105.5 -34t65 -89l372 -1239q2 -8 2 -15q0 -23 -16 -39t-43 -18h-6q-19 0 -35 11q-18 13 -25 34l-118 379h-603l-118 -377q-6 -23 -25 -36q-16 -12 -35 -11h-6q-29 2 -44 18t-15 41zM354 543h533l-221 737q-12 35 -44 35 t-44 -35z" />
<glyph unicode="B" horiz-adv-x="1277" d="M190 96v1241q0 41 29 69t72 28h459q156 0 268 -112t112 -265q0 -98 -50 -179t-134 -128q106 -43 172 -138.5t66 -214.5q0 -164 -118 -280.5t-284 -116.5h-491q-43 0 -72 27.5t-29 68.5zM319 117h463q113 0 196 83t83 197q0 117 -83 201t-196 84h-463v-565zM319 799h431 q104 0 180 75.5t76 182.5q0 106 -76 183t-180 77h-431v-518z" />
<glyph unicode="C" horiz-adv-x="1132" d="M139 485v451q0 498 488 498h350q25 0 43 -17.5t18 -41t-18.5 -41t-42.5 -17.5h-350q-358 0 -359 -381v-451q0 -164 95.5 -266t263.5 -102h346q29 0 47 -17.5t18 -41t-18.5 -41t-42.5 -17.5h-350q-229 0 -358.5 133t-129.5 352z" />
<glyph unicode="D" horiz-adv-x="1310" d="M190 96v1241q0 41 29 69t72 28h395q487 0 488 -498v-451q0 -219 -129.5 -352t-358.5 -133h-395q-43 0 -72 27.5t-29 68.5zM319 117h367q168 0 262 102.5t94 265.5v451q0 381 -356 381h-367v-1200z" />
<glyph unicode="E" horiz-adv-x="1150" d="M190 96v1241q0 41 29 69t72 28h696q33 0 51.5 -17.5t18.5 -43t-18.5 -43t-47.5 -17.5h-672v-508h551q31 0 49.5 -17.5t18.5 -42.5q0 -27 -18.5 -44t-45.5 -17h-555v-563h668q33 0 51.5 -17.5t18.5 -43t-17.5 -43t-48.5 -17.5h-700q-43 0 -72 27.5t-29 68.5z" />
<glyph unicode="F" horiz-adv-x="1150" d="M190 61v1276q0 41 29 69t72 28h696q33 0 51.5 -17.5t18.5 -43t-18.5 -43t-47.5 -17.5h-672v-508h551q31 0 49.5 -17.5t18.5 -42.5q0 -27 -18.5 -44t-45.5 -17h-555v-618q0 -29 -18 -47.5t-46 -18.5t-46.5 17t-18.5 44z" />
<glyph unicode="G" horiz-adv-x="1316" d="M139 485v451q0 498 488 498h387q25 0 44 -17.5t19 -41t-19.5 -41t-43.5 -17.5h-387q-356 0 -357 -381v-451q0 -164 94.5 -266t262.5 -102h393v501h-234q-29 0 -47 17.5t-18 42.5q0 23 18.5 41t42.5 18h267q43 0 70.5 -28.5t27.5 -69.5v-543q0 -41 -27.5 -68.5 t-70.5 -27.5h-422q-229 0 -358.5 133t-129.5 352z" />
<glyph unicode="H" horiz-adv-x="1406" d="M190 61v1311q0 27 18.5 44.5t47.5 17.5q27 0 45 -18.5t18 -47.5v-590h768v594q0 27 18.5 44.5t47.5 17.5t46.5 -18.5t17.5 -47.5v-1302q0 -29 -17.5 -47.5t-46.5 -18.5t-47.5 17.5t-18.5 43.5v598h-768v-593q0 -29 -18 -47.5t-45 -18.5q-29 0 -47.5 17t-18.5 44z" />
<glyph unicode="I" horiz-adv-x="507" d="M190 61v1311q0 27 18.5 44.5t46.5 17.5t46 -18.5t18 -47.5v-1302q0 -29 -18 -47.5t-46 -18.5t-46.5 17t-18.5 44z" />
<glyph unicode="J" horiz-adv-x="663" d="M76 59q0 23 18.5 40.5t42.5 17.5q51 0 77 2t54.5 11t38.5 24.5t21.5 49.5t13.5 77t4 114v977q0 27 18.5 44.5t45.5 17.5q29 0 46 -18.5t19 -47.5v-991q0 -76 -7 -134.5t-18.5 -98.5t-35 -66.5t-46 -42t-62.5 -23.5t-73.5 -10t-91.5 -2q-31 0 -48 17t-17 42z" />
<glyph unicode="K" horiz-adv-x="1159" d="M190 61v1311q0 27 18.5 44.5t45.5 17.5q29 0 47 -17.5t18 -44.5v-600h134q6 0 12 2t13 8t12.5 11.5t12.5 13.5t11 14t11 15.5t10 11.5l413 563q16 23 49 23q29 0 46.5 -17.5t17.5 -44.5q0 -18 -14 -39l-467 -622l493 -613q12 -16 12 -37q0 -27 -18 -44t-45 -17 q-33 0 -51 23l-451 577q-35 47 -55 47h-146v-581q0 -29 -18 -47.5t-46 -18.5t-46.5 17t-18.5 44z" />
<glyph unicode="L" horiz-adv-x="1067" d="M190 96v1276q0 27 18.5 44.5t47.5 17.5q27 0 45 -17.5t18 -44.5v-1251h607q31 0 49 -17.5t18 -43t-18.5 -43t-44.5 -17.5h-637q-43 0 -73 27.5t-30 68.5z" />
<glyph unicode="M" horiz-adv-x="1642" d="M170 61v1221q0 61 46 106.5t110 45.5q53 0 93 -29t54 -76l328 -1100l348 1104q14 45 56 73t93 28q63 0 108.5 -45.5t45.5 -106.5v-1221q0 -27 -17.5 -44t-45.5 -17q-29 0 -46.5 17.5t-17.5 43.5v1211q0 41 -22 43q-10 2 -18.5 -7.5t-14.5 -27.5l-391 -1223 q-16 -57 -80 -57q-63 0 -80 57l-365 1223q-12 39 -32 35q-23 -4 -23 -43v-1211q0 -27 -18.5 -44t-44.5 -17q-29 0 -47.5 17t-18.5 44z" />
<glyph unicode="N" horiz-adv-x="1384" d="M170 61v1215q0 68 47 113t115 45q49 0 88 -26t59 -67l543 -1189q16 -37 41 -33t24 43v1210q0 27 18.5 44.5t47.5 17.5q27 0 45.5 -17.5t18.5 -44.5v-1214q0 -68 -46.5 -113t-115.5 -45q-47 0 -87 25.5t-59 66.5l-542 1190q-16 37 -41 33q-27 -2 -27 -43v-1211 q0 -27 -18.5 -44t-44.5 -17q-29 0 -47.5 17t-18.5 44z" />
<glyph unicode="O" horiz-adv-x="1343" d="M139 485v451q0 498 488 498h94q485 0 485 -498v-451q0 -219 -128 -352t-357 -133h-94q-227 0 -357.5 133t-130.5 352zM270 485q0 -164 94.5 -266t262.5 -102h94q168 0 262 102.5t94 265.5v451q0 381 -356 381h-94q-356 0 -357 -381v-451z" />
<glyph unicode="P" horiz-adv-x="1220" d="M190 61v1276q0 41 29 69t72 28h459q158 0 268 -112t110 -263q0 -156 -111.5 -266.5t-266.5 -110.5h-431v-616q0 -29 -18 -47.5t-46 -18.5t-46.5 17t-18.5 44zM319 799h431q104 0 180 76.5t76 182t-76 182.5t-180 77h-431v-518z" />
<glyph unicode="Q" horiz-adv-x="1343" d="M139 483v451q0 498 488 498h94q485 0 485 -498v-451q0 -143 -56 -250.5t-165 -166.5l184 -183q23 -18 23 -47q0 -27 -18.5 -45t-47.5 -18t-47 20l-223 219q-61 -14 -135 -14h-94q-227 0 -357.5 133t-130.5 352zM270 483q0 -164 94.5 -266t262.5 -102h94q168 0 262 102 t94 266v451q0 379 -356 379h-94q-356 0 -357 -379v-451z" />
<glyph unicode="R" horiz-adv-x="1247" d="M190 61v1276q0 41 29 69t72 28h459q158 0 268 -112t110 -263q0 -137 -92 -240.5t-223 -122.5l-39 -4l324 -602q8 -14 8 -29q0 -27 -18.5 -44t-45.5 -17q-41 0 -59 35l-350 647h-314v-621q0 -27 -18 -44t-47 -17q-27 0 -45.5 17t-18.5 44zM319 799h431q104 0 180 76.5 t76 182t-76 182.5t-180 77h-431v-518z" />
<glyph unicode="S" horiz-adv-x="1087" d="M96 58.5q0 23.5 17.5 41t44.5 17.5h393q160 0 239.5 73.5t79.5 237.5q0 66 -17 108t-62.5 69.5t-98.5 43t-147 33.5q-66 12 -100.5 20.5t-91 24.5t-86 33.5t-68.5 46.5t-57.5 64.5t-32 86t-13.5 113.5q0 362 453 363h346q29 0 47.5 -17.5t18.5 -41t-18.5 -41t-45.5 -17.5 h-348q-164 0 -247 -57.5t-83 -188.5q0 -45 9.5 -79t21.5 -59.5t38.5 -45t50 -31.5t67 -23.5t75 -17.5t88.5 -16q109 -18 180.5 -42t130 -65t86 -106.5t27.5 -157.5q0 -223 -110.5 -325.5t-331.5 -102.5h-393q-27 0 -44.5 17.5t-17.5 41z" />
<glyph unicode="T" horiz-adv-x="1193" d="M76 1374.5q0 22.5 18.5 41t42.5 18.5h918q29 0 47 -17.5t18 -41t-18.5 -41t-42.5 -17.5h-395v-1258q0 -23 -19.5 -41t-44.5 -18q-27 0 -45 17.5t-18 41.5v1256h-400q-25 0 -43 18.5t-18 41z" />
<glyph unicode="U" horiz-adv-x="1351" d="M188 422v952q0 23 19.5 41.5t46.5 18.5q25 0 43 -18.5t18 -41.5v-952q0 -139 76 -223t180 -84h248q113 0 176.5 84t63.5 223v948q0 27 18.5 45.5t42.5 18.5q27 0 46.5 -18.5t19.5 -41.5v-952q0 -190 -99.5 -308t-267.5 -118h-248q-162 0 -272.5 113.5t-110.5 312.5z" />
<glyph unicode="V" horiz-adv-x="1185" d="M76 1372q0 25 16.5 42.5t40.5 19.5h4q52 0 66 -54l342 -1224q10 -37 49 -37q37 0 47 37l344 1224q14 53 68 54h4q27 -2 41 -19.5t14 -40.5q0 -8 -2 -16l-342 -1233q-14 -53 -63.5 -89t-110.5 -36q-66 0 -114 37t-62 94l-340 1227q-2 6 -2 14z" />
<glyph unicode="W" horiz-adv-x="1536" d="M76 1366v10q0 25 19.5 41.5t43.5 16.5q27 0 45.5 -15.5t20.5 -38.5l160 -1220q4 -39 26 -41q18 -2 33 33l274 653q18 45 72 45q51 0 70 -41l272 -657q14 -35 35 -33q20 2 27 41l161 1224q4 20 21.5 35t42.5 15q29 0 48 -19.5t15 -48.5l-168 -1239q-8 -57 -49 -92t-98 -35 q-49 0 -88 25.5t-55 66.5l-234 563l-235 -565q-16 -39 -55.5 -64.5t-88.5 -25.5q-59 0 -100 36t-47 91z" />
<glyph unicode="X" horiz-adv-x="1134" d="M76 61q0 16 10 33l403 617l-407 639q-6 10 -6 22q0 27 17.5 44.5t45.5 17.5q35 0 56 -33l374 -588l377 592q16 29 53 29q27 0 44.5 -17.5t17.5 -44.5q0 -16 -10 -35l-396 -626l396 -619q12 -18 12 -31q0 -27 -18.5 -44t-45.5 -17q-37 0 -55 29l-373 583l-376 -583 q-18 -29 -56 -29q-29 0 -46 17t-17 44z" />
<glyph unicode="Y" horiz-adv-x="1120" d="M76 1372q0 23 14 39t43 21h12q31 0 50 -29l368 -606l363 604q18 31 53 31h10q27 -2 42.5 -19.5t15.5 -40.5q0 -16 -9 -29l-409 -690v-592q0 -27 -18.5 -44t-46 -17t-46 17.5t-18.5 43.5v592l-416 686q-8 15 -8 33z" />
<glyph unicode="Z" horiz-adv-x="1114" d="M96 139q0 47 23 78l755 1040q16 25 17 37v4q-4 16 -43 17h-690q-27 0 -44.5 18.5t-17.5 41t17.5 41t44.5 18.5h719q61 0 102 -40t41 -100q0 -45 -33 -88l-747 -1030q-18 -27 -19 -37q0 -2 2 -4q4 -16 43 -16h686q31 0 49.5 -16.5t18.5 -43t-18.5 -43t-45.5 -16.5h-718 q-59 0 -100.5 40t-41.5 99z" />
<glyph unicode="[" horiz-adv-x="600" d="M94 -158v1583q0 39 25.5 63.5t66.5 24.5h256q31 0 48.5 -15t17.5 -40t-16.5 -41t-45.5 -16h-227v-1534h223q31 0 48.5 -15.5t17.5 -40t-17.5 -41t-44.5 -16.5h-260q-41 0 -66.5 24.5t-25.5 63.5z" />
<glyph unicode="\" horiz-adv-x="890" d="M94 1386q0 31 31 44q12 6 25 6q37 0 51 -35l592 -1329q6 -12 6 -23q0 -29 -29 -45q-12 -6 -27 -6q-39 0 -53 33l-590 1325q-6 16 -6 30z" />
<glyph unicode="]" horiz-adv-x="600" d="M94 -188q0 23 18.5 39t45.5 16h225v1534h-229q-25 0 -42.5 16.5t-17.5 40.5q0 25 18.5 40t45.5 15h260q39 0 64.5 -24.5t25.5 -63.5v-1583q0 -39 -25.5 -63.5t-64.5 -24.5h-264q-25 0 -42.5 16.5t-17.5 41.5z" />
<glyph unicode="^" horiz-adv-x="1175" d="M106 793q0 12 9 22l389 600q27 41 78 41q53 0 77 -39l400 -596q10 -14 10 -30q0 -27 -22 -43q-16 -10 -35 -11q-35 0 -51 27l-359 522q-10 12 -21.5 12t-21.5 -14l-346 -526q-14 -23 -47 -23q-18 0 -35 10q-25 17 -25 48z" />
<glyph unicode="_" horiz-adv-x="1083" d="M96 -190q0 23 17.5 40t44.5 17h770q29 0 45 -16.5t16 -43.5q0 -25 -16.5 -41t-44.5 -16h-772q-27 4 -43.5 19.5t-16.5 40.5z" />
<glyph unicode="`" horiz-adv-x="548" d="M61 1407q0 12 7 25q14 33 51 32q12 0 26 -6l308 -147q37 -16 36 -51q0 -12 -6 -23q-14 -29 -47 -29q-16 0 -35 6l-303 142q-37 16 -37 51z" />
<glyph unicode="a" horiz-adv-x="966" d="M78 295q0 123 88 210t213 87h346v143q0 86 -46 141.5t-122 55.5h-356q-31 0 -47.5 15.5t-16.5 39.5q0 23 16.5 39t43.5 16h366q123 0 204 -86t81 -213v-657q0 -37 -25.5 -61.5t-64.5 -24.5h-379q-125 0 -213 86t-88 209zM199 295q0 -74 54 -127t126 -53h346v364h-346 q-72 0 -126 -55t-54 -129z" />
<glyph unicode="b" horiz-adv-x="1017" d="M137 90v1284q0 27 17.5 43.5t44.5 16.5q25 0 43 -16.5t18 -43.5v-332h330q135 0 230 -94t95 -248v-313q0 -61 -17 -124.5t-54 -124t-104.5 -99.5t-153.5 -39h-357q-37 0 -64.5 26.5t-27.5 63.5zM260 117h326q88 0 147.5 77.5t59.5 198.5v307q0 100 -60.5 166t-142.5 66 h-330v-815z" />
<glyph unicode="c" horiz-adv-x="878" d="M102 432v193q0 205 101.5 311t302.5 106h231q25 0 41.5 -16t16.5 -39q0 -25 -16.5 -40t-41.5 -15h-231q-145 0 -214 -77t-69 -230v-195q0 -319 283 -319h231q25 0 41.5 -16.5t16.5 -39.5q0 -25 -16.5 -40t-41.5 -15h-231q-404 0 -404 432z" />
<glyph unicode="d" horiz-adv-x="1017" d="M102 387v313q0 154 95.5 248t230.5 94h332v332q0 27 17.5 43.5t41.5 16.5q27 0 45.5 -16.5t18.5 -43.5v-1284q0 -37 -29 -63.5t-66 -26.5h-356q-86 0 -153.5 39t-103.5 99.5t-54.5 124t-18.5 124.5zM225 393q0 -121 59.5 -198.5t147.5 -77.5h328v815h-332 q-82 0 -142.5 -65.5t-60.5 -166.5v-307z" />
<glyph unicode="e" horiz-adv-x="974" d="M102 485v160q0 182 111 289.5t279 107.5q190 0 293.5 -103t103.5 -294v-96q0 -37 -25.5 -61.5t-64.5 -24.5h-572q2 -193 57.5 -272.5t200.5 -79.5h312q27 0 43 -15.5t16 -40.5t-15.5 -40t-41.5 -15h-316q-217 0 -299 114.5t-82 370.5zM225 565h541v88q-4 279 -274 279 q-121 0 -193 -76t-74 -201v-90z" />
<glyph unicode="f" horiz-adv-x="684" d="M47 987q0 25 16.5 40t42.5 15h95q14 193 107 290.5t259 123.5q6 1 12 1q23 0 37 -14q18 -17 19 -42q0 -45 -45 -55q-248 -37 -266 -304h256q25 0 41 -15t16 -40t-16.5 -40t-40.5 -15h-256v-873q0 -27 -18.5 -43t-45.5 -16t-43 16.5t-16 42.5v873h-95q-27 0 -43 15t-16 40 z" />
<glyph unicode="g" horiz-adv-x="1017" d="M102 342v311q0 61 18.5 126t54.5 125.5t103.5 99t153.5 38.5h361q39 0 64.5 -24.5t25.5 -63.5v-946q0 -246 -84 -358.5t-299 -112.5h-312q-29 0 -45 15.5t-16 39t16.5 40t40.5 16.5h314q145 0 201.5 79.5t58.5 272.5h-330q-135 0 -230.5 93t-95.5 249zM225 342 q0 -100 60.5 -163.5t142.5 -63.5h332v811h-328q-88 0 -147.5 -78t-59.5 -199v-307z" />
<glyph unicode="h" horiz-adv-x="1054" d="M150 57v1317q0 27 17 43.5t44 16.5t44 -16.5t17 -43.5v-332h334q135 0 231.5 -94t96.5 -248v-643q0 -27 -18.5 -42t-45.5 -15t-43 15.5t-16 41.5v639q0 102 -61.5 169t-143.5 67h-334v-875q0 -27 -17 -42t-44 -15q-29 0 -45 15t-16 42z" />
<glyph unicode="i" horiz-adv-x="409" d="M154 57v926q0 27 16 43t43 16t44 -16t17 -43v-926q0 -27 -17 -42t-44 -15t-43 15t-16 42zM154 1325v39q0 27 16 43t43 16t44 -16t17 -43v-39q0 -25 -17 -41t-44 -16t-43 16t-16 41z" />
<glyph unicode="j" horiz-adv-x="405" d="M-49 -313q0 20 12 34l107 154q78 117 77 264v844q0 25 17.5 42t44.5 17t44 -17t17 -42v-846q0 -96 -19.5 -167.5t-74.5 -151.5l-117 -168q-14 -23 -45 -23q-25 0 -39 13q-24 18 -24 47zM147 1325v41q0 25 17.5 41t44.5 16t44 -16t17 -41v-41q0 -25 -17 -40t-44 -15 q-29 0 -45.5 15t-16.5 40z" />
<glyph unicode="k" horiz-adv-x="940" d="M154 59v1315q0 27 17 43.5t44 16.5t44 -16.5t17 -43.5v-753h140q18 0 35 18l299 362q18 23 47 23q25 0 41 -14q23 -18 22 -43q0 -20 -16 -39l-309 -369l348 -465q10 -18 10 -35q0 -27 -21 -43q-16 -16 -41 -16q-33 0 -51 25l-311 428q-31 43 -51 43h-142v-435 q0 -27 -17 -44t-44 -17t-44 16t-17 43z" />
<glyph unicode="l" horiz-adv-x="395" d="M154 59v1315q0 27 17 43.5t44 16.5t44 -17.5t17 -46.5v-1309q0 -27 -17 -44t-44 -17t-44 16t-17 43z" />
<glyph unicode="m" horiz-adv-x="1597" d="M137 59v893q0 35 25.5 62.5t66.5 27.5h926q135 0 230.5 -94t95.5 -248v-641q0 -25 -18.5 -42t-43.5 -17q-29 0 -45 17.5t-16 41.5v641q0 100 -60.5 166t-142.5 66h-287v-871q0 -27 -17 -44t-44 -17t-43 17.5t-16 41.5v873h-490v-871q0 -27 -17.5 -44t-45 -17t-43 17 t-15.5 42z" />
<glyph unicode="n" horiz-adv-x="1038" d="M137 59v893q0 37 25.5 63.5t66.5 26.5h365q135 0 230.5 -94t95.5 -248v-641q0 -25 -18.5 -42t-45.5 -17q-25 0 -42 17.5t-17 41.5v641q0 102 -56.5 167t-146.5 65h-334v-871q0 -27 -18.5 -44t-42.5 -17q-29 0 -45.5 17t-16.5 42z" />
<glyph unicode="o" horiz-adv-x="1019" d="M102 348v316q0 162 98.5 269t248.5 107h124q147 0 246 -107.5t99 -268.5v-316q0 -158 -98.5 -257t-246.5 -99h-124q-150 0 -248.5 99t-98.5 257zM225 342q0 -104 62.5 -174t161.5 -70h124q98 0 161 70t63 174v332q0 109 -63.5 185.5t-160.5 76.5h-124q-98 0 -161 -77 t-63 -185v-332z" />
<glyph unicode="p" horiz-adv-x="1034" d="M154 -330v1282q0 35 27.5 62.5t66.5 27.5h354q88 0 154.5 -38.5t103.5 -99t55.5 -125t18.5 -126.5v-311q0 -156 -96.5 -249t-231.5 -93h-330v-330q0 -25 -17 -41t-44 -16t-44 16t-17 41zM276 111h330q82 0 143.5 65.5t61.5 165.5v307q0 121 -60.5 199t-148.5 78h-326 v-815z" />
<glyph unicode="q" horiz-adv-x="1017" d="M102 342v311q0 61 18.5 126t54.5 125.5t103.5 99t153.5 38.5h356q39 0 67 -27.5t28 -62.5v-1280q0 -25 -18.5 -42t-45.5 -17q-25 0 -42 17.5t-17 41.5v328h-332q-135 0 -230.5 93t-95.5 249zM225 342q0 -100 60.5 -165.5t142.5 -65.5h332v815h-328q-88 0 -147.5 -78 t-59.5 -199v-307z" />
<glyph unicode="r" horiz-adv-x="712" d="M137 57v953q0 53 50.5 53t52.5 -53l2 -84q86 137 299 137h61q29 0 46.5 -16.5t17.5 -40t-16.5 -39t-43.5 -15.5h-65q-141 0 -212 -76.5t-71 -216.5v-602q0 -27 -17.5 -42t-43.5 -15q-27 0 -43.5 15t-16.5 42z" />
<glyph unicode="s" horiz-adv-x="935" d="M86 756q0 145 99.5 215.5t254.5 70.5h310q29 0 45 -16t16 -39q0 -25 -16.5 -41t-40.5 -16h-314q-106 0 -169.5 -41t-63.5 -129q0 -82 56 -117t192 -51l73 -12q324 -43 324 -281q0 -164 -102.5 -231.5t-288.5 -67.5h-287q-25 0 -41 15.5t-16 39.5q0 23 16.5 39.5 t40.5 16.5h287q268 0 268 186q0 70 -56.5 115t-162.5 57l-88 10q-164 18 -250 82t-86 195z" />
<glyph unicode="t" horiz-adv-x="741" d="M47 983q0 27 17.5 43t44.5 16h108v172q0 25 17.5 42.5t44 17.5t44 -17.5t17.5 -42.5v-172h262q31 0 48.5 -16t17.5 -43q0 -25 -17.5 -40t-44.5 -15h-266v-606q0 -119 42 -172.5t148 -53.5h76q27 0 44.5 -17.5t17.5 -41.5q0 -25 -17.5 -41t-44.5 -16h-76q-164 0 -238.5 86 t-74.5 256v606h-108q-27 0 -44.5 15t-17.5 40z" />
<glyph unicode="u" horiz-adv-x="1021" d="M119 342v641q0 23 18.5 41t44.5 18q27 0 43.5 -18t16.5 -41v-641q0 -100 61.5 -165.5t142.5 -65.5h334v868q0 25 17.5 44t44 19t44 -18t17.5 -41v-893q0 -37 -25.5 -63.5t-68.5 -26.5h-363q-135 0 -231 93t-96 249z" />
<glyph unicode="v" horiz-adv-x="911" d="M49 975v12q0 23 16.5 39t38.5 16q2 0 5 1q47 0 59 -44l244 -847q10 -37 49 -37q37 0 47 37l237 845q6 20 23.5 32.5t40.5 12.5q29 -2 43 -18t14 -41q0 -12 -4 -22l-252 -852q-14 -47 -56 -78t-97 -31t-97.5 30.5t-56.5 78.5z" />
<glyph unicode="w" horiz-adv-x="1497" d="M47 989q0 23 18.5 38t43.5 15q20 0 36.5 -13t20.5 -32l205 -845q10 -37 41.5 -37t42.5 37l221 800q12 47 70.5 47t70.5 -47l223 -800q10 -37 42 -37t42 37l207 833q14 57 60 57h4q25 -2 40 -17t15 -42q0 -10 -2 -22l-207 -844q-14 -51 -58 -84t-104 -33q-57 0 -99 31.5 t-56 83.5l-176 645l-179 -645q-12 -51 -56 -83t-103 -32q-57 0 -100.5 33t-55.5 84l-205 858q-2 6 -2 14z" />
<glyph unicode="x" horiz-adv-x="856" d="M53 55q0 18 10 35l293 434l-286 428q-12 16 -13 37q0 29 25 43q16 10 33 10q33 0 51 -26l264 -391l260 389q18 29 51 28q20 0 37 -12q23 -16 23 -41q0 -20 -15 -43l-284 -422l293 -432q12 -18 12 -39q0 -25 -21 -39q-16 -14 -36 -14q-35 0 -54 27l-266 399l-268 -399 q-18 -27 -51 -27q-20 0 -37 12q-21 16 -21 43z" />
<glyph unicode="y" horiz-adv-x="901" d="M47 985q0 20 15.5 37.5t39.5 17.5q5 1 11 1q40 0 55 -44l268 -868q4 -14 12.5 -14t12.5 14l274 866q14 47 62 48q2 0 4 -1q27 0 41 -15t14 -38q0 -10 -2 -20l-438 -1387q-12 -39 -55 -39h-5q-25 2 -40 18.5t-15 37.5q0 8 2 14l123 395l-25 4q-59 14 -75 70l-275 887 q-4 8 -4 16z" />
<glyph unicode="z" horiz-adv-x="935" d="M86 68q0 33 18 57l592 805h-512q-25 0 -41 15.5t-16 39.5q0 25 16.5 41t40.5 16h588q35 0 57.5 -19t22.5 -48t-21 -57l-585 -805h538q29 0 46.5 -16.5t17.5 -41t-16.5 -40t-43.5 -15.5h-624q-35 0 -56.5 18.5t-21.5 49.5z" />
<glyph unicode="{" horiz-adv-x="880" d="M96 635q0 23 17.5 40t44.5 17q92 0 154.5 66.5t62.5 167.5v499q0 39 25.5 63.5t64.5 24.5h260q29 0 45 -16t16 -41q0 -23 -16 -39t-43 -16h-227v-475q0 -102 -48.5 -178t-132.5 -111q84 -39 132.5 -115t48.5 -178v-477h225q29 0 45 -15.5t16 -40t-16 -41t-43 -16.5h-262 q-39 0 -64.5 24.5t-25.5 63.5v502q0 100 -62.5 167t-156.5 67q-25 0 -42.5 17t-17.5 40z" />
<glyph unicode="|" horiz-adv-x="313" d="M94 -88v1472q0 27 17.5 44.5t46.5 17.5q27 0 45 -17.5t18 -48.5v-1464q0 -27 -18.5 -45t-44.5 -18q-29 0 -46.5 17t-17.5 42z" />
<glyph unicode="}" horiz-adv-x="880" d="M96 -188.5q0 24.5 16.5 40t45.5 15.5h225v477q0 102 48 178t132 115q-84 35 -132 111.5t-48 177.5v475h-229q-27 0 -42.5 16.5t-15.5 40.5q0 23 16.5 39t45.5 16h258q41 0 66.5 -24.5t25.5 -63.5v-499q0 -100 62.5 -167t154.5 -67q27 0 44 -16.5t17 -40.5q0 -23 -17 -40 t-44 -17q-92 0 -154.5 -67t-62.5 -167v-502q0 -39 -25.5 -63.5t-66.5 -24.5h-262q-25 0 -41.5 16.5t-16.5 41z" />
<glyph unicode="~" horiz-adv-x="1206" d="M96 324q2 123 90 210t211 87q80 0 150.5 -41t109.5 -107q23 -43 64 -66.5t90 -23.5q70 0 122 51t54 129q8 57 62 58q25 0 43 -17.5t18 -40.5q0 -121 -89 -209t-210 -88q-82 0 -152.5 41t-109.5 107q-25 41 -66 65.5t-86 24.5q-72 0 -125 -53.5t-53 -126.5 q0 -23 -17.5 -40.5t-43.5 -17.5q-25 0 -43.5 17.5t-18.5 40.5z" />
<glyph unicode="&#xa1;" horiz-adv-x="311" d="M94 -281v906q0 27 16.5 44t45.5 17q27 0 45 -17.5t18 -43.5v-906q0 -27 -18.5 -43t-44.5 -16q-29 0 -45.5 16t-16.5 43zM94 946v88q0 27 16.5 44.5t45.5 17.5q27 0 45 -17.5t18 -44.5v-88q0 -25 -18.5 -41t-44.5 -16q-29 0 -45.5 15t-16.5 42z" />
<glyph unicode="&#xa2;" horiz-adv-x="884" d="M92 432v193q0 401 375 415v113q0 20 13.5 33.5t33.5 13.5t34.5 -13t14.5 -32v-113h164q25 0 41 -16t16 -39q0 -25 -16 -40t-41 -15h-164v-821h164q25 0 41 -16.5t16 -39.5q0 -25 -16 -40t-41 -15h-164v-113q0 -18 -14 -31.5t-35 -13.5q-20 0 -33.5 13.5t-13.5 35.5v109 q-375 14 -375 432zM213 430q0 -147 64.5 -229t189.5 -90v819q-254 -14 -254 -307v-193z" />
<glyph unicode="&#xa3;" horiz-adv-x="1009" d="M94 57q0 23 17.5 39.5t44.5 16.5h120v620h-94q-27 0 -45 15.5t-18 39.5q0 25 17.5 40.5t41.5 15.5h98v215q0 147 35 231t96.5 114t163.5 30h199q29 0 47.5 -16.5t18.5 -40t-17.5 -40t-44.5 -16.5h-203q-90 0 -131 -55.5t-41 -206.5v-215h295q29 0 45.5 -15.5t16.5 -40 t-16.5 -40t-41.5 -15.5h-299v-620h453q29 0 45 -16.5t16 -40t-15 -40t-42 -16.5h-700q-27 0 -44.5 16t-17.5 41z" />
<glyph unicode="&#xa5;" horiz-adv-x="1128" d="M80 1372q0 31 26 49q16 12 37 13q37 0 56 -31l368 -606l363 604q18 33 55 33q23 0 41 -13q25 -18 25 -49q0 -16 -9 -29l-268 -450h197q27 0 44 -17.5t17 -43t-17.5 -42t-43.5 -16.5h-266l-72 -121v-90h338q27 0 44 -16.5t17 -42.5q0 -25 -17.5 -41.5t-43.5 -16.5h-338 v-385q0 -27 -18.5 -44t-46 -17t-46 17.5t-18.5 43.5v385h-344q-27 2 -44.5 18.5t-17.5 41.5q0 23 17.5 40t46.5 17h342v90l-74 121h-272q-27 4 -43.5 19.5t-16.5 40.5q0 23 17.5 41t46.5 18h196l-270 446q-8 15 -8 33z" />
<glyph unicode="&#xa6;" horiz-adv-x="311" d="M94 -82v619q0 25 17.5 42t44.5 17q29 0 46 -16.5t17 -42.5v-617q-2 -63 -63 -63q-27 0 -44.5 17t-17.5 44zM94 840v618q0 25 17.5 41.5t44.5 16.5q29 0 46 -16.5t17 -41.5v-620q-4 -27 -21.5 -43.5t-41.5 -16.5q-27 0 -44.5 17.5t-17.5 44.5z" />
<glyph unicode="&#xa7;" horiz-adv-x="958" d="M100 551q0 160 154 215q-78 31 -116 82t-38 135q0 268 351 268h309q27 0 44 -16t17 -39q0 -25 -16.5 -40t-40.5 -15h-313q-225 0 -226 -154q0 -78 55.5 -114.5t186.5 -53.5l74 -8q319 -47 319 -281q0 -160 -119 -229q119 -70 119 -205q0 -162 -100.5 -229.5t-286.5 -67.5 h-285q-25 0 -41 16.5t-16 39t16.5 38t40.5 15.5h285q262 0 262 186q0 70 -55 114t-158 56l-86 10q-166 20 -251 83t-85 194zM225 555q0 -80 58.5 -116t183.5 -52l84 -12q37 -4 72 -15q113 41 112 168q0 72 -55 115t-158 55l-86 11q-211 0 -211 -154z" />
<glyph unicode="&#xa8;" horiz-adv-x="550" d="M61 1346v57q0 25 16.5 41t41.5 16q27 0 44 -16.5t17 -40.5v-57q0 -23 -16.5 -39.5t-44.5 -16.5q-27 0 -42.5 15.5t-15.5 40.5zM373 1346v57q0 25 16.5 41t42 16t43 -16.5t17.5 -40.5v-57q0 -23 -16.5 -39.5t-44.5 -16.5t-43 15.5t-15 40.5z" />
<glyph unicode="&#xa9;" horiz-adv-x="1251" d="M88 872q0 231 154.5 395.5t382 164.5t383 -164t155.5 -396q0 -231 -155.5 -393t-383 -162t-382 162t-154.5 393zM176 872.5q0 -194.5 129 -332t319.5 -137.5t321.5 137.5t131 332t-131 332.5t-321.5 138t-319.5 -138t-129 -332.5zM397 870q0 158 47.5 237t178.5 79h112 q18 0 29.5 -12.5t11.5 -28.5q0 -18 -11 -30.5t-30 -12.5h-112q-88 0 -115 -54.5t-27 -177.5q0 -115 30 -170t112 -55h112q18 0 29.5 -12t11.5 -31q0 -16 -11 -28.5t-30 -12.5h-112q-129 0 -177.5 77.5t-48.5 231.5z" />
<glyph unicode="&#xaa;" horiz-adv-x="686" d="M102 891q0 78 56.5 133t134.5 55h199v74q0 47 -24 79t-65 32h-219q-45 0 -45 41q0 20 12.5 32.5t32.5 12.5h219q78 0 128.5 -55.5t50.5 -137.5v-379q0 -33 -21.5 -55.5t-52.5 -22.5h-215q-78 0 -134.5 55.5t-56.5 135.5zM193 891q0 -41 29.5 -72t70.5 -31h199v199h-199 q-41 0 -70.5 -28.5t-29.5 -67.5z" />
<glyph unicode="&#xab;" horiz-adv-x="1032" d="M96 553q0 49 47 86l232 180q16 12 39 12q31 0 47 -22q10 -14 10 -33q0 -29 -22 -45l-197 -158q-12 -10 -12 -21t10 -22l194 -159q27 -20 27 -49q0 -18 -14 -35q-18 -20 -43 -21q-23 0 -39 15l-240 198q-39 33 -39 74zM553 553q0 49 43 82l233 182q18 12 41 12 q29 0 45 -18q14 -16 15 -35q0 -27 -25 -45l-196 -158q-12 -8 -12.5 -20t12.5 -21l194 -163q25 -20 25 -47q0 -18 -15 -35q-16 -18 -43 -19q-23 0 -41 15l-235 196q-41 33 -41 74z" />
<glyph unicode="&#xac;" horiz-adv-x="1705" />
<glyph unicode="&#xad;" horiz-adv-x="870" d="M96 537q0 23 17.5 40t44.5 17h557q27 0 44 -17.5t17 -41.5q0 -27 -16.5 -43.5t-44.5 -16.5h-555q-64 3 -64 62z" />
<glyph unicode="&#xae;" horiz-adv-x="1251" d="M90 872.5q0 233.5 153.5 396.5t381 163t382 -163t154.5 -395.5t-154.5 -395.5t-382 -163t-381 162t-153.5 395.5zM178 872.5q0 -196.5 128 -331.5t318.5 -135t319.5 135t129 331.5t-129 332.5t-319.5 136t-318.5 -136t-128 -332.5zM420 596v530q0 27 18.5 46.5t46.5 19.5 h142q219 0 219 -184q0 -145 -125 -179l108 -217q4 -8 5 -18q0 -16 -15 -27q-10 -8 -22 -8q-27 0 -37 21l-125 241h-137v-225q0 -16 -11.5 -27.5t-28 -11.5t-27.5 11.5t-11 27.5zM498 897h157q111 0 111 111q0 106 -135 106h-133v-217z" />
<glyph unicode="&#xaf;" horiz-adv-x="647" d="M61 1448q0 27 16.5 43t41.5 16h416q25 0 40 -15t15 -44q0 -27 -15.5 -43t-39.5 -16h-416q-25 0 -41.5 16t-16.5 43z" />
<glyph unicode="&#xb0;" horiz-adv-x="778" d="M92 1131.5q0 130.5 83 212t214 81.5q133 0 216 -81.5t83 -212t-83 -211t-216 -80.5q-131 0 -214 80.5t-83 211zM209 1131.5q0 -82.5 50 -135t130 -52.5q82 0 133 52.5t51 135t-51 135t-133 52.5q-80 0 -130 -52.5t-50 -135z" />
<glyph unicode="&#xb1;" horiz-adv-x="1083" d="M96 174q0 23 17.5 40t44.5 17h770q29 0 45 -16t16 -43t-16.5 -42t-44.5 -15h-746q-86 0 -86 59zM96 729q0 23 17.5 40t44.5 17h315v215q2 23 20.5 39.5t45.5 16.5t43 -16.5t16 -41.5v-213h330q29 0 45 -16t16 -43t-16.5 -43t-44.5 -16h-330v-222q0 -25 -18.5 -41 t-44.5 -16q-25 0 -43.5 17.5t-18.5 42.5v219h-317q-27 0 -43.5 17t-16.5 44z" />
<glyph unicode="&#xb2;" horiz-adv-x="681" d="M106 648.5q0 21.5 17 35.5l244 234q29 27 46 46t31.5 51t14.5 64v29q0 49 -38 75.5t-91 26.5h-170q-18 0 -31.5 14.5t-13.5 31t13 32t32 15.5h170q96 0 156.5 -52.5t60.5 -142.5v-29q0 -72 -27.5 -120t-85.5 -105l-178 -168h276q16 0 31 -14.5t15 -30.5 q0 -18 -14.5 -31.5t-31.5 -13.5h-372q-20 0 -37 15.5t-17 37z" />
<glyph unicode="&#xb3;" horiz-adv-x="655" d="M104 645q0 14 14.5 28.5t33.5 14.5h206q43 0 72 31t29 78q0 51 -29 84.5t-72 33.5h-125q-23 0 -35 12.5t-12 35.5q0 16 12.5 29.5t32.5 13.5h134q41 0 67.5 27.5t26.5 70.5q0 47 -29 78.5t-72 31.5h-206q-20 0 -34 13.5t-14 34.5q0 12 14.5 26.5t33.5 14.5h206 q82 0 136.5 -57.5t54.5 -141.5q0 -94 -76 -143q76 -57 76 -164q0 -86 -55.5 -142.5t-135.5 -56.5h-206q-20 0 -34 13.5t-14 33.5z" />
<glyph unicode="&#xb4;" horiz-adv-x="548" d="M61 1260q0 35 35 51l310 147q14 6 26 6q35 0 51 -32q6 -12 6 -25q0 -33 -45 -53l-294 -140q-16 -6 -33 -6q-35 0 -49 29q-7 11 -7 23z" />
<glyph unicode="&#xb6;" horiz-adv-x="1220" d="M98 1038q0 66 18.5 130.5t54.5 126t103.5 100.5t155.5 39h627q31 0 48 -17.5t17 -42.5q0 -27 -17.5 -44t-43.5 -17h-113v-1471q0 -29 -17.5 -47t-45 -18t-46 17.5t-18.5 43.5v1475h-174v-1475q0 -27 -18.5 -44t-42.5 -17q-29 0 -45.5 17.5t-16.5 43.5v854h-106 q-133 0 -226.5 94t-93.5 252z" />
<glyph unicode="&#xb7;" horiz-adv-x="319" d="M94 596v80q0 25 18.5 44t47.5 19t48 -19.5t19 -43.5v-76q0 -29 -19.5 -48.5t-47.5 -19.5q-29 0 -47.5 18.5t-18.5 45.5z" />
<glyph unicode="&#xb8;" horiz-adv-x="391" d="M61 -330q0 16 10.5 27.5t24.5 11.5h68q41 0 53 18.5t12 59.5q0 39 -12 55.5t-51 16.5q-57 2 -57 65v113h84v-111q78 0 108.5 -30.5t30.5 -108.5q0 -82 -40 -118t-124 -36h-66q-41 0 -41 37z" />
<glyph unicode="&#xb9;" horiz-adv-x="497" d="M117 1153q0 18 18 35l154 108q16 10 41 11q27 0 43 -16.5t16 -45.5v-596q0 -20 -12 -33.5t-33 -13.5q-18 0 -32.5 13.5t-14.5 31.5v543l-104 -68q-18 -12 -37 -12q-18 0 -31 16q-8 15 -8 27z" />
<glyph unicode="&#xba;" horiz-adv-x="755" d="M106 1028q0 178 67 250t208 72t205.5 -71t64.5 -251t-64.5 -254t-205.5 -74t-208 75t-67 253zM203 1028q0 -137 41 -187t137 -50q94 0 134 50t40 187t-39 183t-135 46q-98 0 -138 -46t-40 -183z" />
<glyph unicode="&#xbb;" horiz-adv-x="1032" d="M102 776q0 18 15 35q16 18 45 18q25 0 41 -12l233 -182q43 -33 43 -82q0 -41 -41 -74l-235 -196q-18 -14 -41 -15q-27 0 -43 19q-14 16 -15 35q0 27 27 47l193 163q12 8 12 20.5t-12 20.5l-197 158q-25 18 -25 45zM561 322q0 29 27 49l194 159q12 10 12.5 21.5 t-12.5 21.5l-198 158q-23 16 -23 45q0 18 10 33q18 23 50 22q20 0 36 -12l232 -180q47 -37 47 -86q0 -41 -39 -74l-240 -198q-16 -14 -39 -15q-25 0 -43 21q-14 17 -14 35z" />
<glyph unicode="&#xbc;" horiz-adv-x="1337" d="M94 1153q0 18 19 35l155 108q14 10 39 11q27 0 44.5 -16.5t17.5 -45.5v-596q0 -20 -13.5 -33.5t-33.5 -13.5q-18 0 -32 13.5t-16 31.5v543l-104 -68q-18 -12 -35 -12q-20 0 -33 16q-8 13 -8 27zM299 45q0 10 4 21l547 1220q12 31 45 31q10 0 18 -2q31 -10 31 -41 q0 -12 -4 -23l-547 -1228q-12 -27 -39 -27q-14 0 -28 8q-27 12 -27 41zM733 221q0 18 4 33l166 408q14 35 45 34q10 0 21 -4q25 -10 24 -39q0 -10 -4 -20l-160 -391v-9v-4q2 -6 11 -6h207v131q0 18 13 31.5t30 13.5q20 0 34.5 -13t14.5 -30v-133h67q20 0 33.5 -12 t13.5 -31.5t-13 -33t-34 -13.5h-67v-88q0 -20 -14.5 -33.5t-34.5 -13.5q-16 0 -29.5 13.5t-13.5 31.5v90h-226q-43 0 -65.5 26.5t-22.5 61.5z" />
<glyph unicode="&#xbd;" horiz-adv-x="1421" d="M96 1153q0 18 21 35l153 108q14 10 39 11q29 0 45.5 -16.5t16.5 -45.5v-596q0 -20 -13.5 -33.5t-33.5 -13.5q-18 0 -31.5 13.5t-13.5 31.5v543l-107 -68q-18 -12 -35 -12q-20 0 -31 16q-10 13 -10 27zM301 45q0 10 4 21l547 1220q14 31 45 31q10 0 21 -2q31 -10 30 -41 q0 -12 -6 -23l-547 -1228q-10 -27 -39 -27q-12 0 -26 8q-29 12 -29 41zM862 53.5q0 20.5 17 36.5l245 234q29 27 45.5 45t30.5 50t14 64v29q0 49 -36.5 76.5t-92.5 27.5h-170q-16 0 -30.5 13.5t-14.5 31t14.5 32t30.5 14.5h170q96 0 157 -51.5t61 -143.5v-29q0 -72 -28 -120 t-85 -105l-178 -168h276q16 0 31.5 -14.5t15.5 -30.5t-15 -30.5t-32 -14.5h-373q-20 0 -36.5 16.5t-16.5 37z" />
<glyph unicode="&#xbe;" horiz-adv-x="1458" d="M92 649q0 14 14.5 28.5t32.5 14.5h207q43 0 71.5 31t28.5 78q0 51 -28.5 85t-71.5 34h-127q-20 0 -32.5 12t-12.5 35q0 16 12.5 29.5t30.5 13.5h135q39 0 66.5 27.5t27.5 70.5q0 47 -28.5 78t-71.5 31h-207q-20 0 -33.5 14t-13.5 35q0 12 14.5 26.5t32.5 14.5h207 q80 0 135.5 -57.5t55.5 -141.5q0 -94 -76 -145q76 -55 76 -162q0 -86 -55.5 -142.5t-135.5 -56.5h-207q-20 0 -33.5 13.5t-13.5 33.5zM420 45q0 10 4 21l547 1220q14 31 45 31q10 0 20 -2q31 -10 31 -41q0 -12 -4 -23l-549 -1228q-10 -27 -37 -27q-14 0 -28 8q-29 12 -29 41 zM854 221q0 18 6 33l164 408q14 35 47 34q10 0 21 -4q23 -10 22 -39q0 -10 -4 -20l-158 -391q-2 -4 -2 -9q0 -2 2 -4q2 -6 11 -6h204v131q0 18 13.5 31.5t31.5 13.5q20 0 34 -13t14 -30v-133h69q18 0 31.5 -12t13.5 -31.5t-12 -33t-33 -13.5h-69v-88q0 -20 -13.5 -33.5 t-34.5 -13.5q-18 0 -31.5 13.5t-13.5 31.5v90h-223q-43 0 -66.5 26.5t-23.5 61.5z" />
<glyph unicode="&#xbf;" horiz-adv-x="931" d="M96 6q0 88 39 161t119 144l133 121q78 72 78 143v46q0 29 17.5 45t45.5 16q27 0 44.5 -16.5t17.5 -40.5v-50q0 -76 -29 -122.5t-96 -108.5l-125 -117q-115 -102 -115 -221q0 -236 273 -235h274q31 0 48.5 -16.5t17.5 -43.5q0 -23 -17.5 -40t-44.5 -17h-278 q-188 0 -295 90t-107 262zM461 948v80q0 29 19.5 47.5t45.5 18.5q29 0 48.5 -18.5t19.5 -43.5v-84q0 -25 -19.5 -43t-48.5 -18q-27 0 -46 18t-19 43z" />
<glyph unicode="&#xc0;" d="M76 59q0 8 2 19l373 1233q16 55 63 89t106.5 34t105.5 -34t65 -89l372 -1239q2 -8 2 -15q0 -23 -16 -39t-43 -18q-23 -2 -41 11.5t-25 33.5l-118 379h-603l-118 -377q-6 -23 -24.5 -36t-41.5 -11q-29 2 -44 18t-15 41zM354 543h533l-221 737q-12 35 -44 35t-44 -35z M408 1798q0 12 4 25q16 33 51 32q14 0 26 -6l310 -147q35 -16 35 -51q0 -12 -5 -23q-16 -29 -49 -29q-16 0 -32 7l-306 141q-34 16 -34 51z" />
<glyph unicode="&#xc1;" d="M76 59q0 8 2 19l373 1233q16 55 63 89t106.5 34t105.5 -34t65 -89l372 -1239q2 -8 2 -15q0 -23 -16 -39t-43 -16q-23 -4 -41 9.5t-25 33.5l-118 379h-603l-118 -377q-6 -23 -24.5 -36t-41.5 -11q-29 2 -44 18t-15 41zM354 543h533l-221 737q-12 35 -44 35t-44 -35z M406 1651q0 35 36 51l310 147q12 6 26 6q35 0 51 -32q6 -12 7 -25q0 -33 -45 -53l-297 -139q-16 -6 -33 -7q-33 0 -49 29q-6 11 -6 23z" />
<glyph unicode="&#xc2;" d="M76 59q0 8 2 19l373 1233q16 55 63 89t107.5 34t105.5 -34t64 -89l372 -1239q2 -8 2 -15q0 -23 -16 -39t-43 -16q-23 -4 -41 9.5t-25 33.5l-118 379h-603l-118 -377q-6 -23 -24.5 -36t-41.5 -11q-29 2 -44 18t-15 41zM354 543h533l-221 737q-12 35 -44 35t-44 -35z M356 1614q0 18 13 33l168 186q33 41 84 41q43 0 73 -37l174 -186q16 -18 16.5 -38t-16.5 -34q-16 -16 -39 -16q-27 0 -47 20l-139 152q-10 10 -22.5 10t-22.5 -10l-141 -152q-18 -20 -45 -20q-23 0 -37 14q-19 14 -19 37z" />
<glyph unicode="&#xc3;" d="M76 59q0 8 2 19l373 1233q16 55 63 89t106.5 34t105.5 -34t65 -89l372 -1239q2 -8 2 -15q0 -23 -16 -39t-43 -16q-23 -4 -41 9.5t-25 33.5l-118 379h-605l-116 -377q-6 -23 -24.5 -36t-41.5 -11q-29 2 -44 18t-15 41zM299 1677q0 25 20 45q96 84 179 88q35 2 64.5 -7 t44 -19t36.5 -29l6 -6q63 -51 111 -47q33 2 94 57q12 12 33 13q27 0 43 -17q14 -16 14 -36.5t-14 -37.5q-35 -31 -82 -61.5t-84 -32.5q-35 -2 -67.5 9.5t-45 20.5t-45.5 36q-59 47 -96 47h-14q-45 -8 -107 -62q-16 -12 -35 -12q-23 0 -41 16q-14 17 -14 35zM354 543h533 l-221 737q-12 35 -44 35t-44 -35z" />
<glyph unicode="&#xc4;" d="M76 59q0 8 2 19l373 1233q16 55 63 89t106.5 34t105.5 -34t65 -89l372 -1239q2 -8 2 -15q0 -23 -16 -39t-43 -16q-23 -4 -41 9.5t-25 33.5l-118 379h-603l-118 -377q-6 -23 -24.5 -36t-41.5 -11q-29 2 -44 18t-15 41zM354 543h533l-221 737q-12 35 -44 35t-44 -35z M406 1737v57q0 25 16 41t43 16t43 -16t16 -41v-57q0 -23 -16 -39.5t-43 -16.5t-43 15.5t-16 40.5zM717 1737v57q0 25 16.5 41t43 16t43 -16t16.5 -41v-57q0 -23 -16.5 -39.5t-43 -16.5t-43 15.5t-16.5 40.5z" />
<glyph unicode="&#xc5;" d="M76 59q0 8 2 19l373 1233q16 55 63 89t106.5 34t105.5 -34t65 -89l372 -1239q2 -8 2 -15q0 -23 -16 -39t-43 -16q-23 -4 -41 9.5t-25 33.5l-118 379h-603l-118 -377q-6 -23 -24.5 -36t-41.5 -11q-29 2 -44 18t-15 41zM354 543h533l-221 737q-12 35 -44 35t-44 -35z M414 1688q0 84 60.5 144t145.5 60t146 -60t61 -144q0 -82 -61 -142.5t-146 -60.5t-145.5 59.5t-60.5 143.5zM514 1688q0 -45 30.5 -77t76.5 -32q45 0 75.5 31.5t30.5 77.5q0 45 -31.5 77.5t-74.5 32.5t-75 -32.5t-32 -77.5z" />
<glyph unicode="&#xc6;" horiz-adv-x="1587" d="M76 59q0 8 2 19l373 1233q16 55 63 89t107 34q33 0 61 -11q23 10 47 11h696q33 0 51.5 -17.5t18.5 -43t-18.5 -43t-46.5 -17.5h-672v-508h551q29 0 48 -17.5t19 -42.5q0 -27 -18.5 -44t-44.5 -17h-555v-563h667q33 0 51.5 -17.5t18.5 -43t-18.5 -43t-46.5 -17.5h-701 q-43 0 -71.5 27.5t-28.5 68.5v328h-310l-118 -377q-6 -23 -24.5 -36t-41.5 -11q-29 2 -44 18t-15 41zM354 543h275v766q-2 4 -11 4q-29 2 -40 -35z" />
<glyph unicode="&#xc7;" horiz-adv-x="1132" d="M139 485v451q0 498 488 498h350q25 0 43 -17.5t18 -41t-18.5 -41t-42.5 -17.5h-350q-358 0 -359 -381v-451q0 -164 95.5 -266t263.5 -102h346q29 0 47 -17.5t18 -41t-18.5 -41t-42.5 -17.5h-350q-35 0 -66 4v-82q80 0 110.5 -30.5t30.5 -106.5q0 -84 -39.5 -119 t-125.5 -35h-66q-39 0 -39 37q0 16 9.5 26.5t25.5 10.5h68q41 0 53 18.5t12 59.5q0 39 -12.5 55.5t-52.5 16.5q-57 2 -58 65v98q-162 39 -250 163t-88 304z" />
<glyph unicode="&#xc8;" horiz-adv-x="1150" d="M190 96v1241q0 41 29 69t72 28h696q33 0 51.5 -17.5t18.5 -43t-18.5 -43t-47.5 -17.5h-672v-508h551q31 0 49.5 -17.5t18.5 -42.5q0 -27 -18.5 -44t-45.5 -17h-555v-563h668q33 0 51.5 -17.5t18.5 -43t-18.5 -43t-47.5 -17.5h-700q-43 0 -72 27.5t-29 68.5zM387 1806 q0 12 6 25q14 33 49 33q14 0 29 -6l307 -148q37 -16 37 -51q0 -12 -6 -23q-16 -29 -47 -28q-16 0 -35 6l-303 141q-37 16 -37 51z" />
<glyph unicode="&#xc9;" horiz-adv-x="1150" d="M190 96v1241q0 41 29 69t72 28h696q33 0 51.5 -17.5t18.5 -43t-18.5 -43t-47.5 -17.5h-672v-508h551q31 0 49.5 -17.5t18.5 -42.5q0 -27 -18.5 -44t-45.5 -17h-555v-563h668q33 0 51.5 -17.5t18.5 -43t-18.5 -43t-47.5 -17.5h-700q-43 0 -72 27.5t-29 68.5zM387 1659 q0 35 35 51l309 148q14 6 27 6q35 0 51 -33q6 -12 6 -25q0 -35 -45 -53l-295 -139q-18 -6 -35 -6q-33 0 -47 28q-6 11 -6 23z" />
<glyph unicode="&#xca;" horiz-adv-x="1150" d="M190 96v1241q0 41 29 69t72 28h696q33 0 51.5 -17.5t18.5 -43t-18.5 -43t-47.5 -17.5h-672v-508h551q31 0 49.5 -17.5t18.5 -42.5q0 -27 -18.5 -44t-45.5 -17h-555v-563h668q33 0 51.5 -17.5t18.5 -43t-17.5 -43t-48.5 -17.5h-700q-43 0 -72 27.5t-29 68.5zM338 1622 q0 18 10 33l168 186q33 41 86 41q43 0 74 -37l172 -186q16 -18 16 -37.5t-16 -34.5q-16 -16 -39 -16q-27 0 -45 20l-141 152q-10 10 -21.5 10t-21.5 -10l-144 -152q-16 -20 -45 -20q-20 0 -37 14q-16 14 -16 37z" />
<glyph unicode="&#xcb;" horiz-adv-x="1150" d="M190 96v1241q0 41 29 69t72 28h696q33 0 51.5 -17.5t18.5 -43t-18.5 -43t-47.5 -17.5h-672v-508h551q31 0 49.5 -17.5t18.5 -42.5q0 -27 -18.5 -44t-45.5 -17h-555v-563h668q33 0 51.5 -17.5t18.5 -43t-18.5 -43t-47.5 -17.5h-700q-43 0 -72 27.5t-29 68.5zM385 1802 q0 25 16.5 41.5t42.5 16.5q27 0 43.5 -16.5t16.5 -41.5v-57q0 -23 -16.5 -39t-43.5 -16t-42 15t-15 40zM698 1745v57q0 25 15.5 41.5t42 16.5t43 -16.5t16.5 -41.5v-57q0 -23 -16.5 -39t-43 -16t-42 15t-15.5 40z" />
<glyph unicode="&#xcc;" horiz-adv-x="507" d="M41 1806q0 12 6 25q14 33 51 33q12 0 27 -6l309 -148q35 -16 35 -51q0 -12 -6 -23q-14 -29 -47 -28q-16 0 -35 6l-303 141q-37 16 -37 51zM190 61v1311q0 27 18.5 44.5t46.5 17.5t46 -18.5t18 -47.5v-1302q0 -29 -18 -47.5t-46 -18.5t-46.5 17t-18.5 44z" />
<glyph unicode="&#xcd;" horiz-adv-x="507" d="M41 1659q0 35 37 51l307 148q14 6 27 6q35 0 51 -33q6 -12 6 -25q0 -35 -43 -53l-297 -139q-16 -6 -33 -6q-35 0 -49 28q-6 11 -6 23zM190 61v1311q0 27 18.5 44.5t46.5 17.5t46 -18.5t18 -47.5v-1302q0 -29 -18 -47.5t-46 -18.5t-46.5 17t-18.5 44z" />
<glyph unicode="&#xce;" horiz-adv-x="507" d="M-8 1622q0 18 12 33l166 186q33 41 86 41q43 0 74 -37l174 -186q14 -18 14 -37.5t-14 -34.5q-18 -16 -41 -16q-27 0 -45 20l-142 152q-10 10 -21 10t-22 -10l-143 -152q-16 -20 -43 -20q-23 0 -39 14t-16 37zM190 61v1311q0 27 18.5 44.5t46.5 17.5t46 -18.5t18 -47.5 v-1302q0 -29 -18 -47.5t-46 -18.5t-46.5 17t-18.5 44z" />
<glyph unicode="&#xcf;" horiz-adv-x="507" d="M41 1745v57q0 25 15.5 41.5t41.5 16.5q27 0 44.5 -16.5t17.5 -41.5v-57q0 -23 -17.5 -39t-44.5 -16t-42 15t-15 40zM190 61v1311q0 27 18.5 44.5t46.5 17.5t46 -18.5t18 -47.5v-1302q0 -29 -18 -47.5t-46 -18.5t-46.5 17t-18.5 44zM352 1745v57q0 25 15.5 41.5t42 16.5 t44 -16.5t17.5 -41.5v-57q0 -23 -17.5 -39t-44 -16t-42 15t-15.5 40z" />
<glyph unicode="&#xd0;" horiz-adv-x="1333" d="M45 700q0 23 17.5 40.5t43.5 17.5h109v579q0 41 28.5 69t71.5 28h396q487 0 487 -498v-451q0 -219 -129 -352t-358 -133h-396q-43 0 -71.5 27.5t-28.5 68.5v543h-109q-25 0 -43 17t-18 44zM344 117h367q168 0 262 102.5t94 265.5v451q0 381 -356 381h-367v-559h320 q27 0 44 -17.5t17 -42.5q0 -27 -16.5 -43t-44.5 -16h-320v-522z" />
<glyph unicode="&#xd1;" horiz-adv-x="1384" d="M170 61v1215q0 68 47 113t115 45q47 0 87 -26t58 -67l545 -1189q16 -37 41 -33t24 43v1210q0 27 18.5 44.5t47.5 17.5q27 0 45.5 -17.5t18.5 -44.5v-1214q0 -68 -46.5 -113t-115.5 -45q-47 0 -87 25.5t-59 66.5l-542 1190q-16 37 -41 33q-27 -2 -27 -43v-1211 q0 -27 -18.5 -44t-44.5 -17q-29 0 -47.5 17t-18.5 44zM371 1677q0 25 22 45q96 84 178 88q35 2 64 -7t44 -19t38 -29l6 -6q63 -51 111 -47q33 2 94 57q12 12 33 13q25 0 43 -17q12 -16 12 -36.5t-15 -37.5q-33 -31 -81 -61.5t-84 -32.5q-35 -2 -67 9.5t-44 20.5t-45 36 q-59 47 -96 47h-15q-47 -8 -108 -62q-14 -12 -33 -12q-23 0 -41 16q-16 17 -16 35z" />
<glyph unicode="&#xd2;" horiz-adv-x="1343" d="M139 485v451q0 498 488 498h94q485 0 485 -498v-451q0 -219 -128 -352t-357 -133h-94q-227 0 -357.5 133t-130.5 352zM270 485q0 -164 94.5 -266t262.5 -102h94q168 0 262 102.5t94 265.5v451q0 381 -356 381h-94q-356 0 -357 -381v-451zM459 1806q0 12 6 23q14 33 49 33 q14 0 29 -7l307 -145q37 -18 37 -51q0 -12 -6 -25q-16 -29 -47 -28q-16 0 -35 8l-303 141q-37 16 -37 51z" />
<glyph unicode="&#xd3;" horiz-adv-x="1343" d="M139 485v451q0 498 488 498h94q485 0 485 -498v-451q0 -219 -128 -352t-357 -133h-94q-227 0 -357.5 133t-130.5 352zM270 485q0 -164 94.5 -266t262.5 -102h94q168 0 262 102.5t94 265.5v451q0 381 -356 381h-94q-356 0 -357 -381v-451zM459 1659q0 33 35 51l309 145 q14 6 26 7q35 0 52 -33q6 -12 6 -23q0 -35 -45 -55l-295 -137q-18 -8 -35 -8q-33 0 -47 28q-6 13 -6 25z" />
<glyph unicode="&#xd4;" horiz-adv-x="1343" d="M139 485v451q0 498 488 498h94q485 0 485 -498v-451q0 -219 -128 -352t-357 -133h-94q-227 0 -357.5 133t-130.5 352zM270 485q0 -164 94.5 -266t262.5 -102h94q168 0 262 102.5t94 265.5v451q0 381 -356 381h-94q-356 0 -357 -381v-451zM410 1622q0 18 10 31l168 188 q33 39 86 39q43 0 74 -37l172 -186q16 -16 16 -35.5t-16 -34.5q-16 -16 -39 -16q-27 0 -45 20l-142 150q-10 12 -21 12t-22 -12l-143 -152q-18 -18 -45 -18q-20 0 -37 14q-16 14 -16 37z" />
<glyph unicode="&#xd5;" horiz-adv-x="1343" d="M139 485v451q0 498 488 498h94q485 0 485 -498v-451q0 -219 -128 -352t-357 -133h-94q-227 0 -357.5 133t-130.5 352zM270 485q0 -164 94.5 -266t262.5 -102h94q168 0 262 102.5t94 265.5v451q0 381 -356 381h-94q-356 0 -357 -381v-451zM350 1686q0 25 23 45 q96 84 176 88q35 0 64.5 -9.5t44 -18.5t36.5 -28q4 -2 8 -6q61 -51 111 -49q31 4 94 59q12 12 31 13q27 0 43 -19q14 -14 14 -35.5t-14 -35.5q-33 -33 -81 -63t-85 -32q-35 -2 -66.5 9.5t-45 20.5t-46.5 34q-59 49 -96 49q-6 0 -12 -2q-47 -6 -109 -59q-16 -12 -34 -13 q-23 0 -39 17q-17 17 -17 35z" />
<glyph unicode="&#xd6;" horiz-adv-x="1343" d="M139 485v451q0 498 488 498h94q485 0 485 -498v-451q0 -219 -128 -352t-357 -133h-94q-227 0 -357.5 133t-130.5 352zM270 485q0 -164 94.5 -266t262.5 -102h94q168 0 262 102.5t94 265.5v451q0 381 -356 381h-94q-356 0 -357 -381v-451zM457 1745v55q0 27 16 42.5 t43 15.5t43 -15.5t16 -42.5v-55q0 -25 -16 -40t-43 -15t-43 15t-16 40zM770 1745v55q0 27 15.5 42.5t42 15.5t43 -15.5t16.5 -42.5v-55q0 -25 -16.5 -40t-43 -15t-42 15t-15.5 40z" />
<glyph unicode="&#xd7;" horiz-adv-x="937" d="M102 817q0 20 15 39q18 20 47 21q27 0 45 -19l260 -258l260 260q16 18 43 19q31 0 51 -25q12 -16 13 -35q0 -25 -23 -47l-258 -258l262 -262q16 -16 17 -41q0 -23 -15 -37q-18 -23 -47 -22q-27 0 -49 20l-254 256l-258 -256q-18 -18 -45 -18q-29 0 -45 18t-17 41 q0 25 21 43l260 258l-262 260q-21 18 -21 43z" />
<glyph unicode="&#xd8;" horiz-adv-x="1267" d="M102 485v451q0 498 488 498h94q123 0 215 -33l66 147q14 33 51 33q14 0 26 -4q29 -12 29 -45q0 -14 -6 -29l-68 -151q172 -119 172 -416v-451q0 -219 -128 -352t-357 -133h-94q-100 0 -182 27l-70 -156q-14 -31 -51 -31q-14 0 -27 6q-29 16 -29 45q0 10 5 21l71 162 q-98 61 -151.5 167.5t-53.5 243.5zM233 485q0 -195 125 -295l492 1098q-72 29 -166 29h-94q-356 0 -357 -381v-451zM457 137q61 -20 133 -20h94q168 0 262 102.5t94 265.5v451q0 199 -98 293z" />
<glyph unicode="&#xd9;" horiz-adv-x="1351" d="M188 422v952q0 23 19.5 41.5t46.5 18.5q25 0 43 -18.5t18 -41.5v-952q0 -139 76 -223t180 -84h248q113 0 176.5 84t63.5 223v948q0 27 18.5 45.5t42.5 18.5q27 0 46.5 -18.5t19.5 -41.5v-952q0 -190 -99.5 -308t-267.5 -118h-248q-162 0 -272.5 113.5t-110.5 312.5z M463 1798q0 12 6 25q14 33 49 32q14 0 29 -6l307 -147q37 -16 37 -51q0 -12 -6 -23q-16 -29 -47 -29q-16 0 -35 7l-303 141q-37 16 -37 51z" />
<glyph unicode="&#xda;" horiz-adv-x="1351" d="M188 422v952q0 23 19.5 41.5t46.5 18.5q25 0 43 -18.5t18 -41.5v-952q0 -139 76 -223t180 -84h248q113 0 176.5 84t63.5 223v948q0 27 18.5 45.5t42.5 18.5q27 0 46.5 -18.5t19.5 -41.5v-952q0 -190 -99.5 -308t-267.5 -118h-248q-162 0 -272.5 113.5t-110.5 312.5z M463 1651q0 35 35 51l309 147q14 6 27 6q35 0 51 -32q6 -12 6 -25q0 -33 -45 -53l-295 -139q-18 -6 -35 -7q-33 0 -47 29q-6 11 -6 23z" />
<glyph unicode="&#xdb;" horiz-adv-x="1351" d="M188 422v952q0 23 19.5 41.5t46.5 18.5q25 0 43 -18.5t18 -41.5v-952q0 -139 76 -223t180 -84h248q113 0 176.5 84t63.5 223v948q0 27 18.5 45.5t42.5 18.5q27 0 46.5 -18.5t19.5 -41.5v-952q0 -190 -99.5 -308t-267.5 -118h-248q-162 0 -272.5 113.5t-110.5 312.5z M414 1614q0 18 10 33l168 186q33 41 86 41q43 0 74 -37l172 -186q16 -18 16 -38t-16 -34q-16 -16 -39 -16q-27 0 -45 20l-142 152q-10 10 -21 10t-22 -10l-143 -152q-16 -20 -45 -20q-20 0 -37 14q-16 14 -16 37z" />
<glyph unicode="&#xdc;" horiz-adv-x="1351" d="M188 422v952q0 23 19.5 41.5t46.5 18.5q25 0 43 -18.5t18 -41.5v-952q0 -139 76 -223t180 -84h248q113 0 176.5 84t63.5 223v948q0 27 18.5 45.5t42.5 18.5q27 0 46.5 -18.5t19.5 -41.5v-952q0 -190 -99.5 -308t-267.5 -118h-248q-162 0 -272.5 113.5t-110.5 312.5z M463 1737v57q0 25 15.5 41t41.5 16q27 0 43.5 -16t16.5 -41v-57q0 -23 -16.5 -39.5t-43.5 -16.5t-42 15.5t-15 40.5zM774 1737v57q0 25 15.5 41t42 16t43 -16t16.5 -41v-57q0 -23 -16.5 -39.5t-43 -16.5t-42 15.5t-15.5 40.5z" />
<glyph unicode="&#xdd;" horiz-adv-x="1120" d="M76 1372q0 23 14 39t43 21h12q31 0 50 -29l368 -606l363 604q18 31 53 31h10q27 -2 42.5 -19.5t15.5 -40.5q0 -16 -9 -29l-411 -690v-592q0 -27 -17.5 -44t-45 -17t-46 17.5t-18.5 43.5v592l-416 686q-8 15 -8 33zM346 1651q0 35 37 51l309 147q12 6 27 6q35 0 51 -32 q6 -12 6 -25q0 -33 -45 -53l-297 -139q-16 -6 -33 -7q-33 0 -49 29q-6 11 -6 23z" />
<glyph unicode="&#xde;" horiz-adv-x="1155" d="M96 61v1311q0 27 18.5 44.5t47.5 17.5q27 0 45 -17.5t18 -44.5v-180h426q193 0 301.5 -90t108.5 -258v-193q0 -174 -103.5 -281.5t-306.5 -107.5h-426v-201q0 -27 -18.5 -44t-44.5 -17q-29 0 -47.5 17t-18.5 44zM225 381h426q139 0 210 74.5t71 195.5v191q0 113 -73 173 t-208 60h-426v-694z" />
<glyph unicode="&#xdf;" horiz-adv-x="1175" d="M96 59v881q0 494 484 494h69q156 0 266.5 -110t110.5 -263q0 -98 -49 -178t-131 -127q104 -41 169.5 -137.5t65.5 -215.5q0 -170 -116.5 -286.5t-282.5 -116.5h-254q-31 0 -48.5 17.5t-17.5 39.5q0 23 17.5 41.5t44.5 18.5h258q115 0 195.5 82t80.5 204q0 117 -81.5 202 t-194.5 85h-35q-27 0 -44 17.5t-17 40.5t17.5 40t43.5 17q104 0 180 75.5t76 180t-75.5 180.5t-178.5 76h-69q-354 0 -355 -377v-877q0 -29 -19.5 -46t-45.5 -17q-27 0 -45.5 17t-18.5 42z" />
<glyph unicode="&#xe0;" horiz-adv-x="966" d="M78 295q0 123 88 210t213 87h346v143q0 86 -46 141.5t-122 55.5h-356q-31 0 -47.5 15.5t-16.5 39.5q0 23 16.5 39t43.5 16h366q123 0 204 -86t81 -213v-657q0 -37 -25.5 -61.5t-64.5 -24.5h-379q-125 0 -213 86t-88 209zM199 295q0 -74 54 -127t126 -53h346v364h-346 q-72 0 -126 -55t-54 -129zM270 1413q0 12 6 25q14 33 52 32q12 0 26 -6l310 -147q35 -16 34 -51q0 -12 -6 -23q-14 -29 -47 -29q-16 0 -35 9l-303 141q-37 16 -37 49z" />
<glyph unicode="&#xe1;" horiz-adv-x="966" d="M78 295q0 123 88 210t213 87h346v143q0 86 -46 141.5t-122 55.5h-356q-31 0 -47.5 15.5t-16.5 39.5q0 23 16.5 39t43.5 16h366q123 0 204 -86t81 -213v-657q0 -37 -25.5 -61.5t-64.5 -24.5h-379q-125 0 -213 86t-88 209zM199 295q0 -74 54 -127t126 -53h346v364h-346 q-72 0 -126 -55t-54 -129zM270 1268q0 33 37 49l307 147q14 6 27 6q35 0 51 -32q6 -12 6 -25q0 -33 -43 -53l-297 -137q-16 -8 -32 -9q-35 0 -50 29q-6 13 -6 25z" />
<glyph unicode="&#xe2;" horiz-adv-x="966" d="M78 295q0 123 88 210t213 87h346v143q0 86 -46 141.5t-122 55.5h-356q-31 0 -47.5 15.5t-16.5 39.5q0 23 16.5 39t43.5 16h366q123 0 204 -86t81 -213v-657q0 -37 -25.5 -61.5t-64.5 -24.5h-379q-125 0 -213 86t-88 209zM199 295q0 -74 54 -127t126 -53h346v364h-346 q-72 0 -126 -55t-54 -129zM221 1231q0 18 12 31l168 188q31 39 84 39q43 0 74 -37l174 -186q14 -18 14.5 -38t-14.5 -34q-18 -14 -41 -14q-27 0 -45 20l-141 150q-10 10 -21.5 10t-21.5 -10l-144 -152q-16 -18 -43 -18q-23 0 -38 12q-17 14 -17 39z" />
<glyph unicode="&#xe3;" horiz-adv-x="966" d="M78 295q0 123 88 211t213 88h346v141q0 86 -46 141.5t-122 55.5h-356q-31 0 -47.5 15.5t-16.5 39.5q0 23 16.5 39t43.5 16h366q123 0 204 -86t81 -213v-657q0 -37 -25.5 -61.5t-64.5 -24.5h-379q-125 0 -213 86t-88 209zM162 1294q0 23 22 43q96 86 178 88q33 2 63 -7 t45 -18t38 -30q2 0 6 -4q63 -53 111 -49q33 2 94 57q12 14 33 15q25 0 43 -19q12 -14 12 -35.5t-14 -38.5q-33 -31 -81 -60.5t-85 -33.5q-35 -2 -67 9.5t-44 20.5t-45 36q-59 49 -96 49q-8 0 -15 -2q-47 -6 -108 -62q-14 -12 -33 -12q-25 0 -41 19q-16 14 -16 34zM199 295 q0 -74 54 -127t126 -53h346v364h-346q-72 0 -126 -55t-54 -129z" />
<glyph unicode="&#xe4;" horiz-adv-x="966" d="M78 295q0 123 88 210t213 87h346v143q0 86 -46 141.5t-122 55.5h-356q-31 0 -47.5 15.5t-16.5 39.5q0 23 16.5 39t43.5 16h366q123 0 204 -86t81 -213v-657q0 -37 -25.5 -61.5t-64.5 -24.5h-379q-125 0 -213 86t-88 209zM199 295q0 -74 54 -127t126 -53h346v364h-346 q-72 0 -126 -55t-54 -129zM270 1354v55q0 25 15.5 41t42.5 16t44 -16t17 -41v-55q0 -25 -17.5 -40.5t-43.5 -15.5q-27 0 -42.5 15.5t-15.5 40.5zM582 1354v55q0 25 15 41t42 16t44 -16t17 -41v-55q0 -25 -16 -40.5t-44 -15.5t-43 15.5t-15 40.5z" />
<glyph unicode="&#xe5;" horiz-adv-x="966" d="M78 295q0 123 88 210t213 87h346v143q0 86 -46 141.5t-122 55.5h-356q-31 0 -47.5 15.5t-16.5 39.5q0 23 16.5 39t43.5 16h366q123 0 204 -86t81 -213v-657q0 -37 -25.5 -61.5t-64.5 -24.5h-379q-125 0 -213 86t-88 209zM199 295q0 -74 54 -127t126 -53h346v364h-346 q-72 0 -126 -55t-54 -129zM279 1305q0 82 60 142t145 60t146.5 -60.5t61.5 -141.5q0 -84 -61.5 -144.5t-146.5 -60.5t-145 60.5t-60 144.5zM379 1305q0 -47 30.5 -79t75.5 -32q43 0 75 31.5t32 79.5q0 43 -32 75.5t-75 32.5q-45 0 -75.5 -31.5t-30.5 -76.5z" />
<glyph unicode="&#xe6;" horiz-adv-x="1597" d="M78 295q0 123 88 210t213 87h346v143q0 86 -46 141.5t-122 55.5h-356q-31 0 -47.5 15.5t-16.5 39.5q0 23 16.5 39t43.5 16h366q84 0 148.5 -45t93.5 -120q45 80 127 122.5t182 42.5q190 0 294.5 -103t104.5 -294v-96q0 -37 -25.5 -61.5t-64.5 -24.5h-571v-57 q8 -160 64.5 -227.5t191.5 -67.5h311q29 0 45.5 -15.5t16.5 -40.5t-16.5 -40t-41.5 -15h-315q-197 0 -264 125l-19 -80q-14 -45 -67 -45h-379q-125 0 -213 86t-88 209zM199 295q0 -74 54 -127t126 -53h346v364h-346q-72 0 -126 -55t-54 -129zM850 565h539v88 q-2 279 -275 279q-117 0 -186.5 -69.5t-77.5 -188.5v-109z" />
<glyph unicode="&#xe7;" horiz-adv-x="878" d="M102 432v193q0 205 101.5 311t302.5 106h229q27 0 43.5 -16t16.5 -39q0 -25 -16.5 -40t-43.5 -15h-229q-145 0 -214 -77t-69 -230v-195q0 -319 283 -319h229q27 0 43.5 -16.5t16.5 -39.5q0 -25 -16.5 -40t-43.5 -15h-229q-37 0 -72 4v-82q80 0 110.5 -30.5t30.5 -106.5 q0 -84 -39.5 -119t-125.5 -35h-66q-39 0 -39 37q0 16 9.5 26.5t25.5 10.5h68q41 0 53 18.5t12 59.5q0 35 -11 53.5t-40 18.5q-39 2 -54.5 17t-15.5 48v100q-250 70 -250 412z" />
<glyph unicode="&#xe8;" horiz-adv-x="974" d="M102 485v160q0 182 111 289.5t279 107.5q190 0 293.5 -103t103.5 -294v-96q0 -37 -25.5 -61.5t-64.5 -24.5h-572q2 -193 57.5 -272.5t200.5 -79.5h312q27 0 43 -15.5t16 -40.5t-15.5 -40t-41.5 -15h-316q-217 0 -299 114.5t-82 370.5zM225 565h541v88q-4 279 -274 279 q-121 0 -193 -76t-74 -201v-90zM274 1411q0 12 7 25q14 33 49 32q14 0 28 -6l308 -147q37 -16 36 -51q0 -12 -6 -23q-16 -29 -47 -29q-16 0 -35 7l-303 141q-37 16 -37 51z" />
<glyph unicode="&#xe9;" horiz-adv-x="974" d="M102 485v160q0 182 111 289.5t279 107.5q190 0 293.5 -103t103.5 -294v-96q0 -37 -25.5 -61.5t-64.5 -24.5h-572q2 -193 57.5 -272.5t200.5 -79.5h312q27 0 43 -15.5t16 -40.5t-15.5 -40t-41.5 -15h-316q-217 0 -299 114.5t-82 370.5zM225 565h541v88q-4 279 -274 279 q-121 0 -193 -76t-74 -201v-90zM274 1264q0 35 35 51l309 147q12 6 27 6q35 0 51 -32q6 -12 6 -25q0 -33 -45 -53l-295 -139q-18 -6 -34 -7q-33 0 -47 29q-7 11 -7 23z" />
<glyph unicode="&#xea;" horiz-adv-x="974" d="M102 485v160q0 182 111 289.5t279 107.5q190 0 293.5 -103t103.5 -294v-96q0 -37 -25.5 -61.5t-64.5 -24.5h-572q2 -193 57.5 -272.5t200.5 -79.5h312q27 0 43 -15.5t16 -40.5t-15.5 -40t-41.5 -15h-316q-217 0 -299 114.5t-82 370.5zM225 565h541v88q-4 279 -274 279 q-121 0 -193 -76t-74 -201v-90zM225 1227q0 18 11 33l167 186q33 41 86 41q43 0 74 -37l172 -186q16 -18 16.5 -38t-16.5 -34q-16 -16 -39 -16q-27 0 -45 20l-141 152q-10 10 -21.5 10t-21.5 -10l-143 -152q-18 -20 -45 -20q-20 0 -37 14t-17 37z" />
<glyph unicode="&#xeb;" horiz-adv-x="974" d="M102 485v160q0 182 111 289.5t279 107.5q190 0 293.5 -103t103.5 -294v-96q0 -37 -25.5 -61.5t-64.5 -24.5h-572q2 -193 57.5 -272.5t200.5 -79.5h312q27 0 43 -15.5t16 -40.5t-15.5 -40t-41.5 -15h-316q-217 0 -299 114.5t-82 370.5zM225 565h541v88q-4 279 -274 279 q-121 0 -193 -76t-74 -201v-90zM272 1350v57q0 25 16.5 41t43.5 16t43 -16t16 -41v-57q0 -23 -16.5 -39.5t-42.5 -16.5q-27 0 -43.5 15.5t-16.5 40.5zM586 1350v57q0 25 15 41t42 16t43 -16t16 -41v-57q0 -23 -16 -39.5t-43 -16.5t-42 15.5t-15 40.5z" />
<glyph unicode="&#xec;" horiz-adv-x="409" d="M-8 1409q0 10 6 23q16 33 51 32q14 0 27 -6l309 -147q35 -16 35 -51q0 -12 -4 -23q-16 -29 -49 -29q-16 0 -33 6l-305 142q-37 18 -37 53zM154 57v926q0 27 16 43t43 16t44 -16t17 -43v-926q0 -27 -16 -42t-44 -15t-44 15t-16 42z" />
<glyph unicode="&#xed;" horiz-adv-x="409" d="M-6 1260q0 33 35 51l309 147q12 6 27 6q35 0 51 -32q6 -12 6 -25q0 -33 -45 -53l-297 -140q-16 -6 -33 -6q-33 0 -49 29q-4 11 -4 23zM154 57v926q0 27 16 43t43 16t44 -16t17 -43v-926q0 -27 -16 -42t-44 -15t-44 15t-16 42z" />
<glyph unicode="&#xee;" horiz-adv-x="409" d="M-57 1225q0 16 12 30l168 187q33 41 84 41q43 0 74 -37l174 -186q14 -18 14 -38t-14 -34q-16 -16 -41 -17q-27 0 -45 21l-140 151q-10 10 -22 10.5t-23 -10.5l-141 -151q-18 -20 -45 -21q-23 0 -37 15q-18 14 -18 39zM154 57v926q0 27 16 43t43 16t44 -16t17 -43v-926 q0 -27 -16 -42t-44 -15t-44 15t-16 42z" />
<glyph unicode="&#xef;" horiz-adv-x="409" d="M-8 1346v57q0 25 16.5 41t40.5 16q29 0 45.5 -16.5t16.5 -40.5v-57q0 -23 -16.5 -39.5t-45.5 -16.5q-25 0 -41 15.5t-16 40.5zM154 57v926q0 27 16 43t43 16t44 -16t17 -43v-926q0 -27 -16 -42t-44 -15t-44 15t-16 42zM303 1346v57q0 25 16.5 41t43 16t43 -16.5 t16.5 -40.5v-57q0 -23 -16.5 -39.5t-43 -16.5t-43 15.5t-16.5 40.5z" />
<glyph unicode="&#xf0;" horiz-adv-x="1095" d="M96 401v84q0 360 436 363h340v104q0 143 -75 215l-142 -139q-14 -12 -32 -12q-23 0 -41 22q-8 12 -9 29q0 23 19 37l145 141q-86 72 -233 72h-301q-25 0 -43.5 18.5t-18.5 40.5q0 23 18.5 40.5t47.5 17.5h295q221 0 344 -103l86 80q14 12 33 12q23 0 39 -18 q10 -14 10 -31q0 -20 -21 -39l-82 -78q90 -115 90 -315v-471q0 -246 -113.5 -359.5t-342.5 -113.5q-217 0 -333 110.5t-116 292.5zM227 401q0 -135 78 -210.5t240 -75.5q170 0 248.5 80.5t78.5 277.5v258h-335q-309 0 -310 -246v-84z" />
<glyph unicode="&#xf1;" horiz-adv-x="1038" d="M137 59v893q0 37 25.5 63.5t66.5 26.5h365q135 0 230.5 -94t95.5 -248v-641q0 -25 -18.5 -42t-45.5 -17q-25 0 -42 17.5t-17 41.5v641q0 102 -56.5 167t-146.5 65h-334v-871q0 -27 -18.5 -44t-42.5 -17q-29 0 -45.5 17t-16.5 42zM199 1286q0 25 20 45q96 84 178 88 q35 2 65 -7t44 -19.5t37 -28.5l6 -6q63 -51 110 -47q33 2 95 57q12 12 32 12q27 0 43 -16q14 -16 14.5 -36.5t-14.5 -37.5q-35 -31 -82 -61.5t-83 -32.5q-35 -2 -67 9.5t-45 20.5t-46 36q-59 47 -96 47h-15q-45 -8 -106 -62q-16 -12 -35 -12q-23 0 -41 16q-14 17 -14 35z " />
<glyph unicode="&#xf2;" horiz-adv-x="1019" d="M102 348v316q0 162 98.5 269t248.5 107h124q147 0 246 -107.5t99 -268.5v-316q0 -158 -98.5 -257t-246.5 -99h-124q-150 0 -248.5 99t-98.5 257zM225 342q0 -104 62.5 -174t161.5 -70h124q98 0 161 70t63 174v332q0 109 -63.5 184.5t-160.5 75.5h-124q-98 0 -161 -76 t-63 -184v-332zM295 1415q0 12 6 25q16 33 51 33q14 0 27 -7l309 -147q35 -16 35 -51q0 -12 -4 -23q-16 -29 -49 -28q-16 0 -33 6l-305 141q-37 16 -37 51z" />
<glyph unicode="&#xf3;" horiz-adv-x="1019" d="M102 348v316q0 162 98.5 269t248.5 107h124q147 0 246 -107.5t99 -268.5v-316q0 -158 -98.5 -257t-246.5 -99h-124q-150 0 -248.5 99t-98.5 257zM225 342q0 -104 62.5 -174t161.5 -70h124q98 0 161 70t63 174v332q0 109 -63.5 185.5t-160.5 76.5h-124q-98 0 -161 -77 t-63 -185v-332zM295 1268q0 35 37 51l309 147q12 6 27 7q35 0 51 -33q6 -12 6 -25q0 -35 -45 -53l-297 -139q-16 -6 -33 -6q-33 0 -49 28q-6 11 -6 23z" />
<glyph unicode="&#xf4;" horiz-adv-x="1019" d="M102 348v316q0 162 98.5 269t248.5 107h124q147 0 246 -107.5t99 -268.5v-316q0 -158 -98.5 -257t-246.5 -99h-124q-150 0 -248.5 99t-98.5 257zM225 342q0 -104 62.5 -174t161.5 -70h124q98 0 161 70t63 174v332q0 109 -63.5 185.5t-160.5 76.5h-124q-98 0 -161 -77 t-63 -185v-332zM246 1231q0 18 12 33l168 186q33 41 84 41q43 0 74 -37l174 -186q16 -18 16 -38t-16 -34q-16 -16 -39 -16q-27 0 -47 20l-140 152q-10 10 -22 10t-23 -10l-141 -152q-18 -20 -45 -20q-23 0 -37 14q-18 14 -18 37z" />
<glyph unicode="&#xf5;" horiz-adv-x="1019" d="M102 348v316q0 162 98.5 269t248.5 107h124q147 0 246 -107.5t99 -268.5v-316q0 -158 -98.5 -257t-246.5 -99h-124q-150 0 -248.5 99t-98.5 257zM188 1294q0 25 21 45q96 84 178 88q35 2 64.5 -7t44 -19t36.5 -29l7 -6q63 -51 110 -47q33 2 94 57q12 12 33 13 q27 0 43 -19q14 -14 14.5 -34.5t-14.5 -37.5q-35 -31 -82 -61.5t-84 -32.5q-35 -2 -67.5 9.5t-45 20.5t-44.5 36q-59 47 -97 47h-14q-45 -8 -106 -62q-16 -12 -35 -12q-23 0 -41 17q-15 16 -15 34zM225 342q0 -104 62.5 -174t161.5 -70h124q98 0 161 70t63 174v332 q0 109 -63.5 185.5t-160.5 76.5h-124q-98 0 -161 -77t-63 -185v-332z" />
<glyph unicode="&#xf6;" horiz-adv-x="1019" d="M102 348v316q0 162 98.5 269t248.5 107h124q147 0 246 -107.5t99 -268.5v-316q0 -158 -98.5 -257t-246.5 -99h-124q-150 0 -248.5 99t-98.5 257zM225 342q0 -104 62.5 -174t161.5 -70h124q98 0 161 70t63 174v332q0 109 -63.5 185.5t-160.5 76.5h-124q-98 0 -161 -77 t-63 -185v-332zM295 1354v57q0 25 16.5 41t42.5 16q27 0 43.5 -16t16.5 -41v-57q0 -23 -16.5 -39.5t-43.5 -16.5t-43 15.5t-16 40.5zM606 1354v57q0 25 16.5 41t43 16t43 -16t16.5 -41v-57q0 -23 -16.5 -39.5t-43 -16.5t-43 15.5t-16.5 40.5z" />
<glyph unicode="&#xf7;" horiz-adv-x="903" d="M96 715q0 23 17.5 41t44.5 18h590q27 0 44 -17.5t17 -43t-17.5 -42t-43.5 -16.5h-590q-29 2 -45.5 18.5t-16.5 41.5zM385 307v78q0 27 19.5 45.5t48.5 18.5q27 0 47 -18.5t20 -45.5v-74q0 -31 -20.5 -49t-46.5 -18q-29 0 -48.5 17t-19.5 46zM385 1038v80q0 25 19.5 44.5 t48.5 19.5q27 0 47 -19.5t20 -44.5v-76q0 -29 -19.5 -48t-47.5 -19q-29 0 -48.5 18t-19.5 45z" />
<glyph unicode="&#xf8;" horiz-adv-x="997" d="M92 348v316q0 162 98.5 269t247.5 107h125q47 0 92 -12l60 133q14 33 51 33q14 0 27 -4q29 -12 28 -45q0 -14 -6 -29l-59 -135q70 -49 110.5 -133t40.5 -184v-316q0 -158 -98 -257t-246 -99h-125q-61 0 -114 18l-68 -151q-14 -31 -51 -31q-14 0 -27 6q-29 16 -28 45 q0 10 4 21l71 161q-133 101 -133 287zM215 342q0 -102 59 -170l336 758q-23 4 -47 4h-125q-98 0 -160.5 -76t-62.5 -184v-332zM367 109q35 -10 71 -11h125q98 0 160.5 70t62.5 174v332q0 123 -77 200z" />
<glyph unicode="&#xf9;" horiz-adv-x="1021" d="M119 342v641q0 23 18.5 41t44.5 18q27 0 43.5 -18t16.5 -41v-641q0 -100 61.5 -165.5t142.5 -65.5h334v868q0 25 17.5 44t44 19t44 -18t17.5 -41v-893q0 -37 -25.5 -63.5t-68.5 -26.5h-363q-135 0 -231 93t-96 249zM299 1415q0 12 4 25q16 33 51 33q14 0 27 -7l309 -147 q35 -16 35 -51q0 -12 -4 -23q-16 -29 -49 -28q-16 0 -33 6l-305 141q-35 16 -35 51z" />
<glyph unicode="&#xfa;" horiz-adv-x="1021" d="M119 342v641q0 23 18.5 41t44.5 18q27 0 43.5 -18t16.5 -41v-641q0 -100 61.5 -165.5t142.5 -65.5h334v868q0 25 17.5 44t44 19t44 -18t17.5 -41v-893q0 -37 -25.5 -63.5t-68.5 -26.5h-363q-137 0 -232 93t-95 249zM297 1268q0 35 37 51l309 147q12 6 27 7q35 0 51 -33 q6 -12 6 -25q0 -35 -45 -53l-297 -139q-16 -6 -33 -6q-33 0 -49 28q-6 11 -6 23z" />
<glyph unicode="&#xfb;" horiz-adv-x="1021" d="M119 342v641q0 23 18.5 41t44.5 18q27 0 43.5 -18t16.5 -41v-641q0 -100 61.5 -165.5t142.5 -65.5h334v868q0 25 17.5 44t44 19t44 -18t17.5 -41v-893q0 -37 -25.5 -63.5t-68.5 -26.5h-363q-135 0 -231 93t-96 249zM248 1231q0 18 12 33l168 186q33 41 84 41q43 0 74 -37 l174 -186q14 -18 14 -38t-14 -34q-16 -16 -39 -16q-29 0 -47 20l-139 152q-10 10 -22.5 10t-20.5 -10l-144 -152q-18 -20 -45 -20q-23 0 -37 14q-18 14 -18 37z" />
<glyph unicode="&#xfc;" horiz-adv-x="1021" d="M119 342v641q0 23 18.5 41t44.5 18q27 0 43.5 -18t16.5 -41v-641q0 -100 61.5 -165.5t142.5 -65.5h334v868q0 25 17.5 44t44 19t44 -18t17.5 -41v-893q0 -37 -25.5 -63.5t-68.5 -26.5h-363q-137 0 -232 93t-95 249zM297 1354v57q0 25 16.5 41t42.5 16q27 0 43.5 -16 t16.5 -41v-57q0 -23 -16.5 -39.5t-43.5 -16.5t-43 15.5t-16 40.5zM608 1354v57q0 25 16.5 41t43 16t43 -16t16.5 -41v-57q0 -23 -16.5 -39.5t-43 -16.5t-43 15.5t-16.5 40.5z" />
<glyph unicode="&#xfd;" horiz-adv-x="901" d="M47 985q0 20 15.5 37.5t39.5 17.5q49 6 66 -43l268 -866q4 -16 12.5 -16t12.5 14l274 866q14 49 66 47q27 0 41 -15t14 -38q0 -10 -2 -20l-438 -1387q-12 -41 -60 -39q-25 2 -40 18.5t-15 37.5q0 8 2 14l123 395l-27 4q-57 14 -73 70l-275 887q-4 8 -4 16zM238 1264 q0 33 36 51l308 145q14 6 26 6q35 0 51 -32q6 -12 7 -23q0 -35 -43 -55l-297 -137q-16 -8 -33 -9q-35 0 -49 29q-6 13 -6 25z" />
<glyph unicode="&#xfe;" horiz-adv-x="972" d="M98 -313v1687q0 27 16.5 43.5t43 16.5t45 -16.5t18.5 -43.5v-332h326q86 0 153.5 -38.5t104.5 -100t54.5 -125t17.5 -125.5v-311q0 -156 -95.5 -249t-230.5 -93h-330v-313q0 -27 -18.5 -44.5t-44.5 -17.5q-25 0 -42.5 17.5t-17.5 44.5zM221 111h330q82 0 142.5 65.5 t60.5 165.5v307q0 121 -59.5 199t-147.5 78h-326v-815z" />
<glyph unicode="&#xff;" horiz-adv-x="901" d="M47 985q0 20 15.5 37.5t39.5 17.5q49 6 66 -43l268 -866q4 -16 12.5 -16t12.5 14l274 866q14 49 66 47q27 0 41 -15t14 -38q0 -10 -2 -20l-438 -1387q-12 -41 -60 -39q-25 2 -40 18.5t-15 37.5q0 8 2 14l123 395l-27 4q-57 14 -73 70l-275 887q-4 8 -4 16zM238 1350v55 q0 27 15 42t42 15t44 -15t17 -42v-55q0 -25 -17 -40.5t-44 -15.5t-42 15.5t-15 40.5zM549 1350v55q0 27 15.5 42t42 15t44 -15t17.5 -42v-55q0 -25 -17.5 -40.5t-44 -15.5t-42 15.5t-15.5 40.5z" />
<glyph unicode="&#x152;" horiz-adv-x="2037" d="M139 485v451q0 498 488 498h94q274 0 375 -174l22 131q10 43 62 43h696q31 0 49.5 -17.5t18.5 -43t-17.5 -43t-46.5 -17.5h-674v-508h551q31 0 50.5 -17.5t19.5 -42.5q0 -27 -18.5 -44t-47.5 -17h-555v-563h670q31 0 49.5 -17.5t18.5 -43t-17.5 -43t-46.5 -17.5h-700 q-55 0 -66 43l-20 145q-109 -188 -373 -188h-94q-227 0 -357.5 133t-130.5 352zM270 485q0 -164 94.5 -266t262.5 -102h94q168 0 262 102.5t94 265.5v451q0 381 -356 381h-94q-356 0 -357 -381v-451z" />
<glyph unicode="&#x153;" horiz-adv-x="1705" d="M102 348v316q0 162 98.5 269t248.5 107h124q94 0 171 -51t116 -137q43 90 129 140t197 50q190 0 293.5 -103t103.5 -294v-96q0 -37 -25.5 -61.5t-64.5 -24.5h-573q4 -199 59 -275.5t201 -76.5h311q27 0 43 -15.5t16 -40.5t-15 -40t-42 -15h-315q-129 0 -205 42t-113 132 q-37 -84 -113.5 -133t-173.5 -49h-124q-150 0 -248.5 99t-98.5 257zM225 342q0 -104 62.5 -174t161.5 -70h124q98 0 161 70t63 174v332q0 109 -63.5 185.5t-160.5 76.5h-124q-98 0 -161 -77t-63 -185v-332zM920 565h540v90q-4 276 -274 277q-121 0 -192.5 -75t-73.5 -202 v-90z" />
<glyph unicode="&#x178;" horiz-adv-x="1120" d="M76 1372q0 23 14 39t43 21h12q31 0 50 -29l368 -606l363 604q18 31 53 31h10q27 -2 42.5 -19.5t15.5 -40.5q0 -16 -9 -29l-409 -690v-592q0 -27 -18.5 -44t-46 -17t-46 17.5t-18.5 43.5v592l-416 686q-8 15 -8 33zM346 1737v57q0 25 16.5 41t43.5 16t43 -16t16 -41v-57 q0 -23 -16.5 -39.5t-42.5 -16.5q-27 0 -43.5 15.5t-16.5 40.5zM657 1737v57q0 25 16.5 41t43 16t43 -16t16.5 -41v-57q0 -23 -16.5 -39.5t-43 -16.5t-43 15.5t-16.5 40.5z" />
<glyph unicode="&#x2c6;" horiz-adv-x="647" d="M61 1223q0 18 11 32l168 187q33 41 86 41q43 0 73 -37l174 -186q14 -18 14.5 -38t-14.5 -34q-18 -16 -41 -17q-27 0 -45 21l-141 151q-10 10 -21.5 10.5t-21.5 -10.5l-143 -151q-16 -20 -45 -21q-20 0 -37 15q-17 14 -17 37z" />
<glyph unicode="&#x2dc;" horiz-adv-x="772" d="M63 1286q0 25 23 45q96 84 178 88q35 2 64.5 -7t44 -19.5t37.5 -28.5l6 -6q63 -51 110 -47q33 2 95 57q12 12 32 12q25 0 43 -16q12 -16 12.5 -36.5t-14.5 -37.5q-33 -31 -81 -61.5t-85 -32.5q-33 -2 -65.5 9.5t-44.5 20.5t-45 36q-59 47 -97 47h-14q-45 -8 -108 -62 q-14 -12 -33 -12q-23 0 -41 16q-17 17 -17 35z" />
<glyph unicode="&#x2013;" horiz-adv-x="1036" d="M96 555q0 23 18.5 40t45.5 17h721q27 0 44 -16t17 -43q0 -25 -17.5 -41t-43.5 -16h-723q-27 2 -44.5 18t-17.5 41z" />
<glyph unicode="&#x2014;" horiz-adv-x="1306" d="M96 555q0 23 18.5 40t45.5 17h989q27 0 44 -16t17 -43q0 -25 -17 -41t-44 -16h-991q-27 2 -44.5 18t-17.5 41z" />
<glyph unicode="&#x2018;" horiz-adv-x="372" d="M92 1163v140q0 57 41 99t90 54q27 2 45.5 -12t20.5 -39q2 -4 2 -8q0 -25 -29 -39q-41 -25 -41 -72v-123q0 -25 -17.5 -43t-45.5 -18q-27 0 -46.5 18t-19.5 43z" />
<glyph unicode="&#x2019;" horiz-adv-x="374" d="M84 1153v8q0 25 29 39q41 25 41 72v123q0 25 17 43t46 18q27 0 45.5 -18.5t18.5 -42.5v-140q0 -57 -40 -99t-91 -54q-27 -2 -44.5 12t-21.5 39z" />
<glyph unicode="&#x201a;" horiz-adv-x="374" d="M84 -68q0 25 29 39q41 23 41 72v123q0 25 17 43t46 18q27 0 45.5 -18.5t18.5 -42.5v-139q0 -57 -40 -99.5t-91 -54.5q-27 -2 -44.5 12.5t-21.5 38.5v8z" />
<glyph unicode="&#x201c;" horiz-adv-x="651" d="M84 1163v140q0 57 40 99t91 54q27 2 45.5 -12t20.5 -37v-8q0 -25 -29 -39q-41 -25 -41 -74v-123q0 -25 -17.5 -43t-43.5 -18q-27 0 -46.5 19t-19.5 42zM365 1163v140q0 57 39.5 99t91.5 54q27 2 44 -12t21 -37v-8q0 -25 -29 -39q-41 -25 -40 -74v-123q0 -25 -17.5 -43 t-46.5 -18q-27 0 -45 19t-18 42z" />
<glyph unicode="&#x201d;" horiz-adv-x="651" d="M84 1153v8q0 25 29 39q41 25 41 72v123q0 25 17 43t46 18q25 0 44.5 -18.5t19.5 -42.5v-140q0 -57 -40 -99t-91 -54q-27 -2 -45.5 12t-20.5 39zM365 1153v8q0 25 26 39q43 25 43 72v123q0 25 17.5 43t44.5 18t46 -18.5t19 -42.5v-140q0 -57 -40 -99t-91 -54 q-27 -2 -45 12t-20 39z" />
<glyph unicode="&#x201e;" horiz-adv-x="651" d="M84 -68q0 25 29 39q41 23 41 72v123q0 25 17 43t46 18q27 0 45.5 -18.5t18.5 -42.5v-139q0 -57 -40 -99.5t-91 -54.5q-27 -2 -44.5 12.5t-21.5 38.5v8zM365 -68q0 25 28 39q41 23 41 72v123q0 25 17.5 43t44.5 18t46 -18.5t19 -42.5v-139q0 -57 -40 -99.5t-91 -54.5 q-27 -2 -45 12.5t-20 38.5v8z" />
<glyph unicode="&#x2022;" horiz-adv-x="653" d="M104 637q0 88 64.5 154.5t157.5 66.5q90 0 157.5 -66.5t67.5 -154.5q0 -92 -66.5 -156.5t-158.5 -64.5t-157 64.5t-65 156.5z" />
<glyph unicode="&#x2026;" horiz-adv-x="954" d="M94 49v78q0 27 18.5 45t48 18t49 -18t19.5 -45v-74q0 -31 -19.5 -50t-48 -19t-48 18t-19.5 47zM410 49v78q0 27 19.5 45t47.5 18q29 0 48.5 -18t19.5 -45v-74q0 -31 -19.5 -50t-48.5 -19t-48 18t-19 47zM727 49v78q0 27 18.5 45t49.5 18q27 0 46 -18t19 -45v-74 q0 -31 -19.5 -50t-45.5 -19q-31 0 -49.5 18t-18.5 47z" />
<glyph unicode="&#x2039;" horiz-adv-x="571" d="M94 553q0 49 47 86l232 180q16 12 37 12q31 0 49 -22q10 -14 10 -33q0 -29 -23 -45l-198 -158q-12 -10 -12 -21t12 -22l194 -159q25 -20 25 -49q0 -18 -12 -35q-18 -20 -43 -21q-23 0 -39 15l-240 198q-39 33 -39 74z" />
<glyph unicode="&#x203a;" horiz-adv-x="571" d="M102 322q0 29 27 49l195 159q10 10 10 21.5t-10 21.5l-199 158q-23 16 -23 45q0 18 11 33q18 23 47 22q23 0 39 -12l231 -180q47 -37 47 -86q0 -41 -39 -74l-239 -198q-16 -14 -39 -15q-25 0 -43 21q-15 17 -15 35z" />
<glyph unicode="&#x20ac;" horiz-adv-x="1206" d="M72 551q0 20 16 36.5t41 16.5h94v227h-98q-23 4 -38 18.5t-15 35.5q0 20 16 36.5t41 16.5h94v33q8 463 482 463h346q25 0 43 -17.5t18 -40.5t-18.5 -41t-42.5 -18h-346q-346 0 -355 -348v-31h561q23 0 39.5 -16.5t16.5 -39t-16.5 -37t-39.5 -14.5h-561v-227h561 q23 0 39.5 -15.5t16.5 -39.5q0 -20 -16.5 -34.5t-39.5 -14.5h-559v-45q6 -154 98.5 -246t254.5 -92h342q29 0 47 -17.5t18 -40.5q0 -25 -18.5 -42t-42.5 -17h-346q-221 0 -347.5 123t-134.5 330v47h-96q-25 2 -40 16.5t-15 34.5z" />
<glyph unicode="&#x2122;" horiz-adv-x="1617" d="M88 1384q0 18 15.5 34t31.5 16h516q20 0 34.5 -15.5t14.5 -34.5q0 -18 -15 -32.5t-32 -14.5h-211v-692q0 -16 -14 -31.5t-31 -15.5q-18 0 -34.5 15.5t-16.5 31.5v692h-211q-18 0 -32.5 14.5t-14.5 32.5zM784 645v690q0 39 30 69t71 30q35 0 61.5 -18.5t34.5 -51.5 l170 -586l184 586q10 31 37 50.5t58 19.5q41 0 70.5 -30t29.5 -69v-690q0 -16 -15.5 -31.5t-33 -15.5t-32.5 15.5t-15 31.5v610q0 18 -13 19q-8 0 -12 -14l-201 -619q-14 -43 -57 -43t-61 51l-183 606q-4 12 -14 13q-12 0 -12 -17v-606q0 -16 -15.5 -31.5t-34 -15.5 t-33 15.5t-14.5 31.5z" />
<glyph unicode="&#xe000;" horiz-adv-x="1040" d="M0 1040h1040v-1040h-1040v1040z" />
<glyph unicode="&#xfb01;" horiz-adv-x="1095" d="M47 987q0 25 16.5 40t42.5 15h95q14 193 107 290.5t259 123.5q31 4 49.5 -13.5t18.5 -41.5q0 -45 -45 -55q-248 -37 -266 -304h256q25 0 41 -15t16 -40t-16.5 -40t-40.5 -15h-256v-873q0 -27 -18.5 -43t-45.5 -16t-43 16.5t-16 42.5v873h-95q-27 0 -43 15t-16 40zM840 57 v926q0 27 15 43t44 16q27 0 44.5 -16t17.5 -43v-926q0 -27 -17.5 -42t-45.5 -15t-43 15t-15 42zM840 1325v39q0 27 15 43t44 16q27 0 44.5 -16t17.5 -43v-39q0 -25 -17.5 -41t-45.5 -16t-43 16t-15 41z" />
<glyph unicode="&#xfb02;" horiz-adv-x="1079" d="M47 987q0 25 16.5 40t42.5 15h95q14 193 107 290.5t259 123.5q31 4 49.5 -13.5t18.5 -41.5q0 -45 -45 -55q-248 -37 -266 -304h256q25 0 41 -15t16 -40t-16.5 -40t-40.5 -15h-256v-873q0 -27 -18.5 -43t-45.5 -16t-43 16.5t-16 42.5v873h-95q-27 0 -43 15t-16 40zM840 59 v1315q0 27 16 43.5t45 16.5q27 0 44.5 -17.5t17.5 -46.5v-1309q0 -27 -17.5 -44t-44.5 -17q-29 0 -45 16t-16 43z" />
<glyph unicode="&#xfb03;" horiz-adv-x="1777" d="M1522 57v926q0 27 16 43t43 16t44 -16t17 -43v-926q0 -27 -17 -42t-44 -15t-43 15t-16 42zM1522 1325v39q0 27 16 43t43 16t44 -16t17 -43v-39q0 -25 -17 -41t-44 -16t-43 16t-16 41zM731 987q0 25 16.5 40t42.5 15h95q14 193 107 290.5t259 123.5q6 1 12 1q23 0 37 -14 q18 -17 19 -42q0 -45 -45 -55q-248 -37 -266 -304h256q25 0 41 -15t16 -40t-16.5 -40t-40.5 -15h-256v-873q0 -27 -18.5 -43t-45.5 -16t-43 16.5t-16 42.5v873h-95q-27 0 -43 15t-16 40zM47 987q0 25 16.5 40t42.5 15h95q14 193 107 290.5t259 123.5q6 1 12 1q23 0 37 -14 q18 -17 19 -42q0 -45 -45 -55q-248 -37 -266 -304h256q25 0 41 -15t16 -40t-16.5 -40t-40.5 -15h-256v-873q0 -27 -18.5 -43t-45.5 -16t-43 16.5t-16 42.5v873h-95q-27 0 -43 15t-16 40z" />
<glyph unicode="&#xfb04;" horiz-adv-x="1763" d="M1522 59v1315q0 27 17 43.5t44 16.5t44 -17.5t17 -46.5v-1309q0 -27 -17 -44t-44 -17t-44 16t-17 43zM731 987q0 25 16.5 40t42.5 15h95q14 193 107 290.5t259 123.5q6 1 12 1q23 0 37 -14q18 -17 19 -42q0 -45 -45 -55q-248 -37 -266 -304h256q25 0 41 -15t16 -40 t-16.5 -40t-40.5 -15h-256v-873q0 -27 -18.5 -43t-45.5 -16t-43 16.5t-16 42.5v873h-95q-27 0 -43 15t-16 40zM47 987q0 25 16.5 40t42.5 15h95q14 193 107 290.5t259 123.5q6 1 12 1q23 0 37 -14q18 -17 19 -42q0 -45 -45 -55q-248 -37 -266 -304h256q25 0 41 -15t16 -40 t-16.5 -40t-40.5 -15h-256v-873q0 -27 -18.5 -43t-45.5 -16t-43 16.5t-16 42.5v873h-95q-27 0 -43 15t-16 40z" />
</font>
</defs>
</svg>
